<svg width="22" height="22" viewBox="0 0 22 22" fill="none" xmlns="http://www.w3.org/2000/svg">
<path d="M12.9999 21H2.99995C2.46402 21.0186 1.94442 20.8139 1.56524 20.4347C1.18605 20.0555 0.981324 19.5359 0.999948 19V9.00001C0.981324 8.46408 1.18605 7.94448 1.56524 7.5653C1.94442 7.18611 2.46402 6.98138 2.99995 7.00001H6.99995V3.00001C6.98132 2.46408 7.18605 1.94448 7.56524 1.5653C7.94442 1.18611 8.46402 0.981385 8.99995 1.00001H18.9999C19.5359 0.981385 20.0555 1.18611 20.4347 1.5653C20.8138 1.94448 21.0186 2.46408 20.9999 3.00001V13C21.0183 13.5358 20.8134 14.0553 20.4343 14.4344C20.0552 14.8135 19.5358 15.0183 18.9999 15H14.9999V19C15.0183 19.5358 14.8134 20.0553 14.4343 20.4344C14.0552 20.8135 13.5358 21.0183 12.9999 21ZM2.99995 9.00001V19H12.9999V15H8.99995C8.46411 15.0183 7.94468 14.8135 7.56557 14.4344C7.18645 14.0553 6.98162 13.5358 6.99995 13V9.00001H2.99995ZM8.99995 3.00001V13H18.9999V3.00001H8.99995Z" fill="white"/>
</svg>
