<svg width="1429" height="92" viewBox="0 0 1429 92" fill="none" xmlns="http://www.w3.org/2000/svg">
<path opacity="0.25" d="M46.5029 65.048V71H0.71087V2.84H45.6389V8.792H7.43087V33.368H40.7429V39.032H7.43087V65.048H46.5029ZM164.043 20.984L178.731 40.568L179.499 42.008L180.267 40.568L194.859 20.984H202.251L183.243 46.136L202.251 71H194.859L180.267 51.512L179.499 50.168L178.731 51.512L164.139 71H156.747L175.659 46.136L156.747 20.984H164.043ZM341.058 71.96C336.898 71.96 333.154 70.872 329.826 68.696C326.562 66.52 323.97 63.832 322.05 60.632V91.448H315.522V20.984H321.378V30.68C323.362 27.544 325.986 25.016 329.25 23.096C332.578 21.112 336.162 20.12 340.002 20.12C343.458 20.12 346.626 20.856 349.506 22.328C352.386 23.736 354.882 25.656 356.994 28.088C359.17 30.52 360.834 33.304 361.986 36.44C363.138 39.512 363.714 42.712 363.714 46.04C363.714 50.712 362.754 55.032 360.834 59C358.978 62.904 356.322 66.04 352.866 68.408C349.474 70.776 345.538 71.96 341.058 71.96ZM339.234 66.2C342.882 66.2 346.018 65.24 348.642 63.32C351.33 61.336 353.41 58.808 354.882 55.736C356.354 52.664 357.09 49.432 357.09 46.04C357.09 42.456 356.258 39.128 354.594 36.056C352.93 32.984 350.69 30.52 347.874 28.664C345.122 26.808 341.986 25.88 338.466 25.88C336.29 25.88 333.986 26.456 331.554 27.608C329.186 28.696 327.074 30.2 325.218 32.12C323.426 33.976 322.37 36.024 322.05 38.264V53.624C323.522 57.144 325.826 60.12 328.962 62.552C332.098 64.984 335.522 66.2 339.234 66.2ZM501.012 71.96C496.212 71.96 491.924 70.776 488.148 68.408C484.372 66.04 481.396 62.872 479.22 58.904C477.044 54.936 475.956 50.584 475.956 45.848C475.956 41.176 477.012 36.888 479.124 32.984C481.3 29.08 484.276 25.976 488.052 23.672C491.828 21.304 496.116 20.12 500.916 20.12C505.844 20.12 510.164 21.304 513.876 23.672C517.588 26.04 520.468 29.176 522.516 33.08C524.628 36.92 525.684 41.144 525.684 45.752C525.684 46.776 525.652 47.64 525.588 48.344H482.772C483.092 51.928 484.116 55.128 485.844 57.944C487.572 60.696 489.78 62.904 492.468 64.568C495.156 66.168 498.1 66.968 501.3 66.968C504.564 66.968 507.636 66.136 510.516 64.472C513.396 62.808 515.444 60.632 516.66 57.944L522.324 59.48C521.3 61.912 519.7 64.088 517.524 66.008C515.412 67.864 512.948 69.336 510.132 70.424C507.316 71.448 504.276 71.96 501.012 71.96ZM482.58 43.64H519.54C519.284 40.056 518.292 36.888 516.564 34.136C514.836 31.32 512.628 29.144 509.94 27.608C507.252 26.008 504.276 25.208 501.012 25.208C497.748 25.208 494.772 26.008 492.084 27.608C489.396 29.144 487.188 31.32 485.46 34.136C483.796 36.888 482.836 40.056 482.58 43.64ZM665.356 26.744C661.004 26.872 657.164 28.088 653.836 30.392C650.572 32.696 648.268 35.864 646.924 39.896V71H640.396V20.984H646.54V32.984C648.268 29.464 650.54 26.616 653.356 24.44C656.236 22.264 659.276 21.048 662.476 20.792C663.116 20.728 663.66 20.696 664.108 20.696C664.556 20.696 664.972 20.728 665.356 20.792V26.744ZM778.692 10.52V0.919998H785.22V10.52H778.692ZM778.692 71V20.984H785.22V71H778.692ZM925.838 71.96C921.038 71.96 916.75 70.776 912.974 68.408C909.198 66.04 906.222 62.872 904.046 58.904C901.87 54.936 900.782 50.584 900.782 45.848C900.782 41.176 901.838 36.888 903.95 32.984C906.126 29.08 909.102 25.976 912.878 23.672C916.654 21.304 920.942 20.12 925.742 20.12C930.67 20.12 934.99 21.304 938.702 23.672C942.414 26.04 945.294 29.176 947.342 33.08C949.454 36.92 950.51 41.144 950.51 45.752C950.51 46.776 950.478 47.64 950.414 48.344H907.598C907.918 51.928 908.942 55.128 910.67 57.944C912.398 60.696 914.606 62.904 917.294 64.568C919.982 66.168 922.926 66.968 926.126 66.968C929.39 66.968 932.462 66.136 935.342 64.472C938.222 62.808 940.27 60.632 941.486 57.944L947.15 59.48C946.126 61.912 944.526 64.088 942.35 66.008C940.238 67.864 937.774 69.336 934.958 70.424C932.142 71.448 929.102 71.96 925.838 71.96ZM907.406 43.64H944.366C944.11 40.056 943.118 36.888 941.39 34.136C939.662 31.32 937.454 29.144 934.766 27.608C932.078 26.008 929.102 25.208 925.838 25.208C922.574 25.208 919.598 26.008 916.91 27.608C914.222 29.144 912.014 31.32 910.286 34.136C908.622 36.888 907.662 40.056 907.406 43.64ZM1107.27 71H1100.74V43.064C1100.74 37.176 1099.85 32.888 1098.05 30.2C1096.33 27.448 1093.64 26.072 1089.99 26.072C1087.43 26.072 1084.9 26.712 1082.41 27.992C1079.91 29.208 1077.7 30.904 1075.78 33.08C1073.93 35.192 1072.58 37.624 1071.75 40.376V71H1065.22V20.984H1071.17V32.312C1073.16 28.664 1076.07 25.72 1079.91 23.48C1083.75 21.24 1087.91 20.12 1092.39 20.12C1096.1 20.12 1099.05 21.016 1101.22 22.808C1103.4 24.536 1104.93 27.032 1105.83 30.296C1106.79 33.496 1107.27 37.304 1107.27 41.72V71ZM1247.53 71.96C1242.66 71.96 1238.34 70.776 1234.57 68.408C1230.79 65.976 1227.81 62.808 1225.64 58.904C1223.46 54.936 1222.37 50.584 1222.37 45.848C1222.37 41.112 1223.43 36.824 1225.54 32.984C1227.65 29.08 1230.6 25.976 1234.37 23.672C1238.15 21.304 1242.5 20.12 1247.43 20.12C1252.1 20.12 1256.2 21.208 1259.72 23.384C1263.3 25.496 1265.99 28.376 1267.78 32.024L1261.45 34.04C1260.04 31.48 1258.05 29.496 1255.49 28.088C1253 26.616 1250.21 25.88 1247.14 25.88C1243.75 25.88 1240.68 26.744 1237.93 28.472C1235.24 30.2 1233.06 32.6 1231.4 35.672C1229.8 38.68 1229 42.072 1229 45.848C1229 49.624 1229.83 53.048 1231.49 56.12C1233.16 59.192 1235.37 61.656 1238.12 63.512C1240.87 65.304 1243.91 66.2 1247.24 66.2C1249.41 66.2 1251.53 65.816 1253.57 65.048C1255.62 64.28 1257.38 63.256 1258.85 61.976C1260.33 60.632 1261.32 59.192 1261.83 57.656L1268.26 59.576C1267.37 61.944 1265.89 64.088 1263.85 66.008C1261.8 67.864 1259.37 69.336 1256.55 70.424C1253.73 71.448 1250.73 71.96 1247.53 71.96ZM1404.29 71.96C1399.49 71.96 1395.2 70.776 1391.43 68.408C1387.65 66.04 1384.67 62.872 1382.5 58.904C1380.32 54.936 1379.23 50.584 1379.23 45.848C1379.23 41.176 1380.29 36.888 1382.4 32.984C1384.58 29.08 1387.55 25.976 1391.33 23.672C1395.11 21.304 1399.39 20.12 1404.19 20.12C1409.12 20.12 1413.44 21.304 1417.15 23.672C1420.87 26.04 1423.75 29.176 1425.79 33.08C1427.91 36.92 1428.96 41.144 1428.96 45.752C1428.96 46.776 1428.93 47.64 1428.87 48.344H1386.05C1386.37 51.928 1387.39 55.128 1389.12 57.944C1390.85 60.696 1393.06 62.904 1395.75 64.568C1398.43 66.168 1401.38 66.968 1404.58 66.968C1407.84 66.968 1410.91 66.136 1413.79 64.472C1416.67 62.808 1418.72 60.632 1419.94 57.944L1425.6 59.48C1424.58 61.912 1422.98 64.088 1420.8 66.008C1418.69 67.864 1416.23 69.336 1413.41 70.424C1410.59 71.448 1407.55 71.96 1404.29 71.96ZM1385.86 43.64H1422.82C1422.56 40.056 1421.57 36.888 1419.84 34.136C1418.11 31.32 1415.91 29.144 1413.22 27.608C1410.53 26.008 1407.55 25.208 1404.29 25.208C1401.03 25.208 1398.05 26.008 1395.36 27.608C1392.67 29.144 1390.47 31.32 1388.74 34.136C1387.07 36.888 1386.11 40.056 1385.86 43.64Z" fill="#08183A"/>
</svg>
