<svg width="105" height="882" viewBox="0 0 105 882" fill="none" xmlns="http://www.w3.org/2000/svg">
<path d="M158.826 44.432C154.026 39.056 146.634 34.16 136.65 29.744C126.666 25.328 115.53 23.12 103.242 23.12C87.498 23.12 75.882 26.096 68.394 32.048C60.906 38 57.162 46.16 57.162 56.528C57.162 63.824 59.082 69.584 62.922 73.808C66.762 78.032 72.618 81.488 80.49 84.176C88.554 86.864 98.73 89.648 111.018 92.528C125.226 95.6 137.514 99.344 147.882 103.76C158.25 108.176 166.218 114.128 171.786 121.616C177.354 128.912 180.138 138.704 180.138 150.992C180.138 164.048 176.874 174.8 170.346 183.248C163.818 191.696 154.89 197.936 143.562 201.968C132.426 206 119.85 208.016 105.834 208.016C73.962 208.016 46.218 198.416 22.602 179.216L34.986 157.328C39.21 161.552 44.874 165.776 51.978 170C59.274 174.224 67.53 177.776 76.746 180.656C86.154 183.344 96.042 184.688 106.41 184.688C121.002 184.688 132.33 182.096 140.394 176.912C148.458 171.536 152.49 163.76 152.49 153.584C152.49 145.904 150.186 139.76 145.578 135.152C141.162 130.544 134.538 126.704 125.706 123.632C116.874 120.56 106.122 117.488 93.45 114.416C79.626 110.96 68.01 107.216 58.602 103.184C49.194 98.96 42.09 93.488 37.29 86.768C32.682 80.048 30.378 71.312 30.378 60.56C30.378 47.504 33.546 36.464 39.882 27.44C46.218 18.416 54.954 11.6 66.09 6.99199C77.226 2.38399 89.802 0.0799904 103.818 0.0799904C117.45 0.0799904 129.834 2.19199 140.97 6.41599C152.298 10.64 162.282 16.304 170.922 23.408L158.826 44.432ZM91.2349 339.52H113.123L196.643 544H168.995L144.803 484.096H58.9789L35.0749 544H7.42688L91.2349 339.52ZM139.043 463.936L102.179 369.472L64.1629 463.936H139.043ZM177.453 882V725.904L110.061 846H94.2206L26.5406 725.904V882H0.620625V677.52H27.9806L101.997 810.288L176.301 677.52H203.373V882H177.453Z" fill="#F2F2F2"/>
</svg>
