<svg width="135" height="115" viewBox="0 0 135 115" fill="none" xmlns="http://www.w3.org/2000/svg">
<path d="M97.4469 65.5875L77.4032 59.8813L72.925 9.41254H122.078L117.613 59.8813L97.4469 65.5875ZM84.0344 41.5532L84.8001 51.3125L97.4969 54.7032L110.084 51.3282L111.831 32.225H89.3813L88.8407 25.8719H112.381L112.925 19.7438H82.0813L83.7126 38.4938H105.075L104.316 46.5125L97.5063 48.3875L90.5813 46.4907L90.1407 41.5532H84.0344Z" fill="#E0E0E0"/>
<path d="M37.447 105.591L17.5438 99.925L13.1001 49.8219H61.897L57.4595 99.9282L37.4595 105.591H37.447ZM24.1313 81.725L24.8063 90.6844L37.5032 94.6344L49.9751 91.0719L52.8032 60.0625H22.1782L22.672 66.1531H46.2001L45.6188 72.4781H30.1876L30.7438 78.4532H45.1188L44.2688 86.6407L37.5063 88.5157L30.6313 86.6407L30.1938 81.7344H24.1313V81.725Z" fill="#E0E0E0"/>
<rect x="41" y="30" width="58" height="58" fill="white"/>
<path d="M98 87H42V31H98V87ZM60.9778 75.2773L56.7218 77.9031C57.3851 79.3589 58.4601 80.5886 59.8142 81.4404C61.2853 82.2835 62.9568 82.7134 64.652 82.6849C65.5412 82.6787 66.427 82.5744 67.2933 82.3738C69.1059 81.9278 70.6425 80.7307 71.5182 79.0822C72.3909 77.0289 72.7126 74.7833 72.4516 72.5676C72.4516 72.1444 72.4516 71.712 72.4516 71.2764C72.4671 68.0813 72.4516 64.8302 72.4516 61.6818C72.4516 60.0764 72.4516 58.468 72.4516 56.8564V56.7258H67.2C67.2 58.9844 67.2 61.2379 67.2 63.4862C67.2 65.748 67.2 68.0067 67.2 70.2716C67.2 70.8502 67.2 71.4164 67.2 71.9609C67.3562 73.5137 67.2436 75.0819 66.8671 76.5964C66.4152 77.4686 65.4851 77.9857 64.5058 77.9093C64.0671 77.9081 63.631 77.842 63.2116 77.7133C62.369 77.2728 61.6897 76.5739 61.2733 75.7191L61.1707 75.5449C61.0742 75.38 61.0089 75.2649 60.9778 75.2649V75.2773ZM79.4858 74.6551L75.2142 77.1036C75.564 77.8688 76.0464 78.566 76.6391 79.1631C76.7853 79.3249 76.9502 79.4991 77.1027 79.692C79.1914 81.5601 81.9212 82.5488 84.7218 82.4516C88.3459 82.8087 91.7699 80.7277 93.1218 77.3462V77.3213C93.4759 76.0784 93.5324 74.7697 93.2867 73.5009L93.3924 73.6533C92.932 70.7631 90.8382 68.7564 86.3862 66.9489C86.0409 66.7871 85.6831 66.6378 85.3347 66.4822C83.9502 65.8849 82.6436 65.3249 82.1893 64.3044C81.9869 63.7795 81.95 63.2052 82.0836 62.6587C82.4057 61.5639 83.462 60.854 84.5973 60.9693C84.9439 60.9694 85.2887 61.0197 85.6209 61.1187C86.6447 61.4636 87.473 62.2286 87.8982 63.2218C90.3093 61.6444 90.3093 61.6444 91.9924 60.596C91.6074 59.9387 91.1492 59.3272 90.6267 58.7729C89.0296 57.0609 86.7382 56.1718 84.4044 56.3587H84.0311L82.3884 56.5671C80.8457 56.9133 79.45 57.7336 78.3969 58.9129C77.1589 60.4611 76.6014 62.445 76.8517 64.4115C77.1021 66.378 78.1389 68.1589 79.7253 69.3476C81.0879 70.2801 82.5576 71.0457 84.1027 71.628C86.0969 72.468 87.8173 73.1836 88.1658 74.4933C88.3766 75.2519 88.2213 76.0654 87.7458 76.6929C86.9012 77.5268 85.733 77.9477 84.5507 77.844C84.2251 77.843 83.8999 77.8222 83.5769 77.7818C81.8175 77.3875 80.3197 76.2411 79.4796 74.6458L79.4858 74.6551Z" fill="#F2C94C"/>
</svg>
