<svg width="330" height="61" viewBox="0 0 330 61" fill="none" xmlns="http://www.w3.org/2000/svg">
<path d="M31.288 41.88V47H0.44V1.56H30.712V6.68H6.2V21.4H27.512V26.2H6.2V41.88H31.288ZM40.79 13.592L49.622 25.88L50.134 26.904L50.71 25.88L59.478 13.592H65.75L53.398 30.36L65.814 47H59.542L50.71 34.776L50.134 33.816L49.622 34.776L40.79 47H34.518L46.934 30.36L34.582 13.592H40.79ZM89.0905 47.64C86.3598 47.64 83.9278 46.9573 81.7945 45.592C79.6612 44.2267 77.9758 42.4987 76.7385 40.408V60.632H71.1065V13.592H76.0985V19.864C77.4212 17.816 79.1492 16.1733 81.2825 14.936C83.4158 13.656 85.7412 13.016 88.2585 13.016C90.5625 13.016 92.6745 13.4853 94.5945 14.424C96.5145 15.3627 98.1785 16.6427 99.5865 18.264C100.995 19.8853 102.083 21.7413 102.851 23.832C103.661 25.88 104.067 28.0347 104.067 30.296C104.067 33.4533 103.427 36.3547 102.147 39C100.909 41.6453 99.1598 43.7573 96.8985 45.336C94.6372 46.872 92.0345 47.64 89.0905 47.64ZM87.3625 42.776C89.5812 42.776 91.5012 42.1787 93.1225 40.984C94.7438 39.7893 96.0025 38.232 96.8985 36.312C97.8372 34.392 98.3065 32.3867 98.3065 30.296C98.3065 28.0347 97.7945 25.9653 96.7705 24.088C95.7892 22.2107 94.4238 20.7173 92.6745 19.608C90.9678 18.456 89.0265 17.88 86.8505 17.88C85.5278 17.88 84.1198 18.2213 82.6265 18.904C81.1758 19.5867 79.8958 20.504 78.7865 21.656C77.7198 22.7653 77.0372 24.0027 76.7385 25.368V34.904C77.6772 37.1227 79.1065 39 81.0265 40.536C82.9892 42.0293 85.1012 42.776 87.3625 42.776ZM125.766 47.64C122.438 47.64 119.494 46.8507 116.934 45.272C114.374 43.6933 112.368 41.5813 110.918 38.936C109.467 36.2907 108.742 33.4107 108.742 30.296C108.742 27.1387 109.467 24.2587 110.918 21.656C112.368 19.0533 114.374 16.9627 116.934 15.384C119.536 13.8053 122.502 13.016 125.83 13.016C129.2 13.016 132.123 13.8267 134.598 15.448C137.115 17.0267 139.056 19.1173 140.422 21.72C141.83 24.28 142.534 27.0533 142.534 30.04C142.534 30.9787 142.491 31.704 142.406 32.216H114.694C114.864 34.392 115.462 36.3333 116.486 38.04C117.552 39.704 118.918 41.0267 120.582 42.008C122.246 42.9467 124.038 43.416 125.958 43.416C128.006 43.416 129.926 42.904 131.718 41.88C133.552 40.856 134.811 39.512 135.494 37.848L140.358 39.192C139.291 41.6667 137.435 43.6933 134.79 45.272C132.144 46.8507 129.136 47.64 125.766 47.64ZM114.502 28.312H137.286C137.115 26.136 136.496 24.216 135.43 22.552C134.363 20.888 132.998 19.5867 131.334 18.648C129.67 17.7093 127.835 17.24 125.83 17.24C123.867 17.24 122.054 17.7093 120.39 18.648C118.726 19.5867 117.36 20.888 116.294 22.552C115.27 24.216 114.672 26.136 114.502 28.312ZM166.458 18.52C163.642 18.5627 161.146 19.288 158.97 20.696C156.837 22.0613 155.322 23.96 154.426 26.392V47H148.794V13.592H154.042V21.336C155.194 19.032 156.709 17.176 158.586 15.768C160.506 14.3173 162.511 13.5067 164.602 13.336C165.029 13.336 165.391 13.336 165.69 13.336C165.989 13.336 166.245 13.3573 166.458 13.4V18.52ZM172.044 7.32V0.279999H177.676V7.32H172.044ZM172.044 47V13.592H177.676V47H172.044ZM201.578 47.64C198.25 47.64 195.306 46.8507 192.746 45.272C190.186 43.6933 188.181 41.5813 186.73 38.936C185.279 36.2907 184.554 33.4107 184.554 30.296C184.554 27.1387 185.279 24.2587 186.73 21.656C188.181 19.0533 190.186 16.9627 192.746 15.384C195.349 13.8053 198.314 13.016 201.642 13.016C205.013 13.016 207.935 13.8267 210.41 15.448C212.927 17.0267 214.869 19.1173 216.234 21.72C217.642 24.28 218.346 27.0533 218.346 30.04C218.346 30.9787 218.303 31.704 218.218 32.216H190.506C190.677 34.392 191.274 36.3333 192.298 38.04C193.365 39.704 194.73 41.0267 196.394 42.008C198.058 42.9467 199.85 43.416 201.77 43.416C203.818 43.416 205.738 42.904 207.53 41.88C209.365 40.856 210.623 39.512 211.306 37.848L216.17 39.192C215.103 41.6667 213.247 43.6933 210.602 45.272C207.957 46.8507 204.949 47.64 201.578 47.64ZM190.314 28.312H213.098C212.927 26.136 212.309 24.216 211.242 22.552C210.175 20.888 208.81 19.5867 207.146 18.648C205.482 17.7093 203.647 17.24 201.642 17.24C199.679 17.24 197.866 17.7093 196.202 18.648C194.538 19.5867 193.173 20.888 192.106 22.552C191.082 24.216 190.485 26.136 190.314 28.312ZM253.599 47H247.967V28.312C247.967 24.7707 247.412 22.1893 246.303 20.568C245.236 18.904 243.593 18.072 241.375 18.072C239.839 18.072 238.303 18.456 236.767 19.224C235.273 19.992 233.929 21.0373 232.735 22.36C231.583 23.64 230.751 25.1333 230.239 26.84V47H224.607V13.592H229.727V20.76C231.049 18.4133 232.948 16.536 235.423 15.128C237.94 13.72 240.671 13.016 243.615 13.016C246.217 13.016 248.223 13.6347 249.631 14.872C251.081 16.0667 252.105 17.7307 252.703 19.864C253.3 21.9547 253.599 24.344 253.599 27.032V47ZM277.141 47.64C273.813 47.64 270.869 46.8507 268.309 45.272C265.749 43.6507 263.743 41.5173 262.293 38.872C260.842 36.2267 260.117 33.3467 260.117 30.232C260.117 27.0747 260.821 24.1947 262.229 21.592C263.637 18.9893 265.621 16.92 268.181 15.384C270.741 13.8053 273.706 13.016 277.077 13.016C280.362 13.016 283.221 13.7627 285.653 15.256C288.127 16.7067 289.962 18.6693 291.157 21.144L285.653 22.872C284.799 21.2933 283.605 20.0773 282.069 19.224C280.533 18.328 278.826 17.88 276.949 17.88C274.901 17.88 273.023 18.4133 271.317 19.48C269.653 20.5467 268.33 22.0187 267.349 23.896C266.367 25.7307 265.877 27.8427 265.877 30.232C265.877 32.5787 266.367 34.712 267.349 36.632C268.373 38.5093 269.717 40.0027 271.381 41.112C273.087 42.2213 274.965 42.776 277.013 42.776C278.335 42.776 279.594 42.5413 280.789 42.072C282.026 41.6027 283.093 40.984 283.989 40.216C284.927 39.4053 285.567 38.5307 285.909 37.592L291.413 39.256C290.431 41.688 288.639 43.6933 286.037 45.272C283.477 46.8507 280.511 47.64 277.141 47.64ZM312.266 47.64C308.938 47.64 305.994 46.8507 303.434 45.272C300.874 43.6933 298.868 41.5813 297.418 38.936C295.967 36.2907 295.242 33.4107 295.242 30.296C295.242 27.1387 295.967 24.2587 297.418 21.656C298.868 19.0533 300.874 16.9627 303.434 15.384C306.036 13.8053 309.002 13.016 312.33 13.016C315.7 13.016 318.623 13.8267 321.098 15.448C323.615 17.0267 325.556 19.1173 326.922 21.72C328.33 24.28 329.034 27.0533 329.034 30.04C329.034 30.9787 328.991 31.704 328.906 32.216H301.194C301.364 34.392 301.962 36.3333 302.986 38.04C304.052 39.704 305.418 41.0267 307.082 42.008C308.746 42.9467 310.538 43.416 312.458 43.416C314.506 43.416 316.426 42.904 318.218 41.88C320.052 40.856 321.311 39.512 321.994 37.848L326.858 39.192C325.791 41.6667 323.935 43.6933 321.29 45.272C318.644 46.8507 315.636 47.64 312.266 47.64ZM301.002 28.312H323.786C323.615 26.136 322.996 24.216 321.93 22.552C320.863 20.888 319.498 19.5867 317.834 18.648C316.17 17.7093 314.335 17.24 312.33 17.24C310.367 17.24 308.554 17.7093 306.89 18.648C305.226 19.5867 303.86 20.888 302.794 22.552C301.77 24.216 301.172 26.136 301.002 28.312Z" fill="#08183A"/>
</svg>
