<svg width="1164" height="72" viewBox="0 0 1164 72" fill="none" xmlns="http://www.w3.org/2000/svg">
<path opacity="0.25" d="M29.1115 2.84H34.7755L63.0955 71H55.9915L47.1595 49.688H16.5355L7.79951 71H0.59951L29.1115 2.84ZM45.6235 44.408L31.8955 10.712L17.9755 44.408H45.6235ZM200.643 71.96C196.739 71.96 193.123 70.968 189.795 68.984C186.467 66.936 183.875 64.376 182.019 61.304V71H176.163V0.919998H182.691V31.448C184.931 28.056 187.619 25.336 190.755 23.288C193.891 21.176 197.539 20.12 201.699 20.12C205.219 20.12 208.355 20.856 211.107 22.328C213.923 23.8 216.323 25.784 218.307 28.28C220.291 30.712 221.795 33.496 222.819 36.632C223.843 39.704 224.355 42.872 224.355 46.136C224.355 50.808 223.299 55.096 221.187 59C219.139 62.904 216.323 66.04 212.739 68.408C209.155 70.776 205.123 71.96 200.643 71.96ZM199.107 66.2C202.755 66.2 205.955 65.24 208.707 63.32C211.523 61.4 213.731 58.936 215.331 55.928C216.931 52.856 217.731 49.592 217.731 46.136C217.731 42.616 216.963 39.32 215.427 36.248C213.955 33.176 211.875 30.68 209.187 28.76C206.499 26.84 203.395 25.88 199.875 25.88C195.971 25.88 192.515 27.128 189.507 29.624C186.563 32.12 184.291 35.032 182.691 38.36V53.912C183.011 56.216 184.067 58.296 185.859 60.152C187.651 62.008 189.763 63.48 192.195 64.568C194.627 65.656 196.931 66.2 199.107 66.2ZM361.365 71.96C356.565 71.96 352.277 70.776 348.501 68.408C344.789 66.04 341.877 62.904 339.765 59C337.653 55.032 336.597 50.744 336.597 46.136C336.597 41.464 337.653 37.176 339.765 33.272C341.941 29.304 344.885 26.136 348.597 23.768C352.373 21.336 356.629 20.12 361.365 20.12C366.165 20.12 370.421 21.336 374.133 23.768C377.909 26.136 380.853 29.304 382.965 33.272C385.141 37.176 386.229 41.464 386.229 46.136C386.229 50.744 385.173 55.032 383.061 59C380.949 62.904 378.005 66.04 374.229 68.408C370.517 70.776 366.229 71.96 361.365 71.96ZM343.221 46.232C343.221 49.944 344.021 53.336 345.621 56.408C347.285 59.416 349.493 61.816 352.245 63.608C354.997 65.336 358.037 66.2 361.365 66.2C364.693 66.2 367.733 65.304 370.485 63.512C373.237 61.72 375.445 59.288 377.109 56.216C378.773 53.144 379.605 49.752 379.605 46.04C379.605 42.328 378.773 38.936 377.109 35.864C375.445 32.792 373.237 30.36 370.485 28.568C367.733 26.776 364.693 25.88 361.365 25.88C358.101 25.88 355.093 26.808 352.341 28.664C349.589 30.456 347.381 32.888 345.717 35.96C344.053 39.032 343.221 42.456 343.221 46.232ZM501.306 50.36V20.984H507.834V49.208C507.834 60.536 511.706 66.2 519.45 66.2C523.29 66.2 526.874 64.952 530.202 62.456C533.594 59.96 536.026 56.632 537.498 52.472V20.984H544.026V63.128C544.026 64.856 544.794 65.752 546.33 65.816V71C545.562 71.128 544.954 71.192 544.506 71.192C544.122 71.192 543.706 71.192 543.258 71.192C541.914 71.064 540.762 70.552 539.802 69.656C538.906 68.76 538.458 67.672 538.458 66.392L538.266 59.672C536.09 63.576 533.114 66.616 529.338 68.792C525.626 70.904 521.594 71.96 517.242 71.96C506.618 71.96 501.306 64.76 501.306 50.36ZM687.426 68.6C686.658 68.92 685.25 69.496 683.202 70.328C681.154 71.16 678.786 71.576 676.098 71.576C673.282 71.576 670.818 70.776 668.706 69.176C666.594 67.576 665.538 65.176 665.538 61.976V26.168H658.626V20.984H665.538V4.088H672.066V20.984H683.586V26.168H672.066V60.152C672.194 62.008 672.834 63.384 673.986 64.28C675.202 65.112 676.578 65.528 678.114 65.528C679.906 65.528 681.506 65.24 682.914 64.664C684.386 64.024 685.314 63.576 685.698 63.32L687.426 68.6ZM991.059 71V15.512L966.387 58.616H962.163L937.395 15.512V71H930.675V2.84H937.587L964.179 49.496L990.963 2.84H997.779V71H991.059ZM1139.01 71.96C1134.21 71.96 1129.92 70.776 1126.14 68.408C1122.37 66.04 1119.39 62.872 1117.22 58.904C1115.04 54.936 1113.95 50.584 1113.95 45.848C1113.95 41.176 1115.01 36.888 1117.12 32.984C1119.3 29.08 1122.27 25.976 1126.05 23.672C1129.82 21.304 1134.11 20.12 1138.91 20.12C1143.84 20.12 1148.16 21.304 1151.87 23.672C1155.58 26.04 1158.46 29.176 1160.51 33.08C1162.62 36.92 1163.68 41.144 1163.68 45.752C1163.68 46.776 1163.65 47.64 1163.58 48.344H1120.77C1121.09 51.928 1122.11 55.128 1123.84 57.944C1125.57 60.696 1127.78 62.904 1130.46 64.568C1133.15 66.168 1136.1 66.968 1139.3 66.968C1142.56 66.968 1145.63 66.136 1148.51 64.472C1151.39 62.808 1153.44 60.632 1154.66 57.944L1160.32 59.48C1159.3 61.912 1157.7 64.088 1155.52 66.008C1153.41 67.864 1150.94 69.336 1148.13 70.424C1145.31 71.448 1142.27 71.96 1139.01 71.96ZM1120.58 43.64H1157.54C1157.28 40.056 1156.29 36.888 1154.56 34.136C1152.83 31.32 1150.62 29.144 1147.94 27.608C1145.25 26.008 1142.27 25.208 1139.01 25.208C1135.74 25.208 1132.77 26.008 1130.08 27.608C1127.39 29.144 1125.18 31.32 1123.46 34.136C1121.79 36.888 1120.83 40.056 1120.58 43.64Z" fill="#08183A"/>
</svg>
