<svg width="75" height="75" viewBox="0 0 75 75" fill="none" xmlns="http://www.w3.org/2000/svg">
<path d="M18.125 7.5H56.875C62.75 7.5 67.5 12.3718 67.5 18.3974V56.6026C67.5 62.6282 62.75 67.5 56.875 67.5H18.125C12.25 67.5 7.5 62.6282 7.5 56.6026V18.3974C7.5 12.3718 12.25 7.5 18.125 7.5Z" fill="#330000"/>
<path fill-rule="evenodd" clip-rule="evenodd" d="M28.8309 45.1284H38.2003L40.2656 50.8197C40.316 50.9871 40.4923 51.1067 40.6686 51.0828H45.9326C46.1844 51.0828 46.26 50.9632 46.1844 50.7002L36.9913 26.0697C36.9661 25.9502 36.8654 25.8784 36.6639 25.8784H30.2161H30.1406C30.0147 25.9023 29.9139 26.0219 29.9391 26.1415C29.9391 26.6675 29.8887 27.1936 29.788 27.6958C29.7166 27.8991 29.6579 28.0904 29.6028 28.2697C29.5802 28.3435 29.5581 28.4152 29.5361 28.4849L21.426 50.6523C21.3505 50.9393 21.426 51.0828 21.7031 51.0828H26.4382C26.6648 51.1067 26.8663 50.9632 26.9167 50.748L28.8309 45.1284ZM36.689 40.2741H30.2916C30.6694 39.2697 31.0472 38.1458 31.3998 36.9262C31.6493 36.186 31.8891 35.4458 32.1253 34.7169C32.2706 34.2684 32.4145 33.8243 32.5584 33.3871C32.911 32.3588 33.1881 31.3306 33.4147 30.3023H33.4651C33.5634 30.6222 33.6617 30.957 33.7643 31.3066C33.8458 31.5842 33.93 31.8712 34.0192 32.1675C34.2207 32.861 34.4474 33.5545 34.6993 34.2958C34.8252 34.6664 34.9448 35.0311 35.0645 35.3958C35.1841 35.7604 35.3037 36.1251 35.4297 36.4958C35.6564 37.2132 35.883 37.9067 36.1097 38.5523C36.3364 39.1741 36.5379 39.7719 36.689 40.2741Z" fill="#FF9A00"/>
<path fill-rule="evenodd" clip-rule="evenodd" d="M49.4335 29.1306C50.038 29.6806 50.8439 29.9914 51.6751 29.9675C52.5314 30.0153 53.3878 29.7045 53.9671 29.1306C54.5715 28.5327 54.8738 27.7436 54.8486 26.9306C54.8738 26.1414 54.5715 25.3762 54.0174 24.8023C53.4633 24.2523 52.7077 23.9653 51.7255 23.9653C50.8943 23.9653 50.0883 24.2523 49.4839 24.8023C48.8794 25.3523 48.552 26.1175 48.5771 26.9306C48.552 27.7436 48.8542 28.5327 49.4335 29.1306ZM48.8542 32.311V50.724C48.8542 50.9632 48.9801 51.1066 49.232 51.1066H54.1685C54.3952 51.1066 54.496 50.9871 54.496 50.724V32.311C54.496 32.0958 54.3952 31.9762 54.1685 31.9762H49.1816C48.9549 31.9762 48.8542 32.0719 48.8542 32.311Z" fill="#FF9A00"/>
</svg>
