<svg width="50" height="50" viewBox="0 0 50 50" fill="none" xmlns="http://www.w3.org/2000/svg">
<path d="M25.0001 45.8334C13.4941 45.8334 4.16675 36.506 4.16675 25C4.16675 13.4941 13.4941 4.16669 25.0001 4.16669C36.506 4.16669 45.8334 13.4941 45.8334 25C45.8208 36.5007 36.5008 45.8207 25.0001 45.8334ZM25.0001 8.33335C15.8447 8.33567 8.40521 15.7227 8.33808 24.8778C8.27096 34.033 15.6013 41.5283 24.7557 41.6648C33.9101 41.8014 41.4608 34.5281 41.6668 25.375V29.0896V25C41.6564 15.7996 34.2005 8.34369 25.0001 8.33335ZM28.0209 35.2084L17.7084 24.8959L28.0209 14.5834L30.9668 17.5292L23.6001 24.8959L30.9647 32.2625L28.023 35.2084H28.0209Z" fill="#FD5E53"/>
</svg>
