<svg width="100" height="100" viewBox="0 0 100 100" fill="none" xmlns="http://www.w3.org/2000/svg">
<path fill-rule="evenodd" clip-rule="evenodd" d="M8.3335 24.9999C8.3335 22.6987 10.199 20.8333 12.5002 20.8333H87.5002C89.8014 20.8333 91.6668 22.6987 91.6668 24.9999V74.9999C91.6668 77.3011 89.8014 79.1666 87.5002 79.1666H62.5002C60.199 79.1666 58.3335 77.3011 58.3335 74.9999V54.1666H41.6668V74.9999C41.6668 77.3011 39.8014 79.1666 37.5002 79.1666H12.5002C10.199 79.1666 8.3335 77.3011 8.3335 74.9999V24.9999ZM41.6668 45.8333H58.3335V29.1666H41.6668V45.8333ZM33.3335 29.1666V45.8333H16.6668V29.1666H33.3335ZM16.6668 54.1666H33.3335V70.8333H16.6668V54.1666ZM66.6668 29.1666V45.8333H83.3335V29.1666H66.6668ZM83.3335 54.1666H66.6668V70.8333H83.3335V54.1666Z" fill="url(#paint0_linear)"/>
<defs>
<linearGradient id="paint0_linear" x1="50.0002" y1="20.8333" x2="50.0002" y2="79.1666" gradientUnits="userSpaceOnUse">
<stop stop-color="#FD5E53"/>
<stop offset="1" stop-color="#08183A"/>
</linearGradient>
</defs>
</svg>
