<svg width="50" height="50" viewBox="0 0 50 50" fill="none" xmlns="http://www.w3.org/2000/svg">
<path fill-rule="evenodd" clip-rule="evenodd" d="M16.6667 2.08337C17.8173 2.08337 18.75 3.01611 18.75 4.16671V5.20837H31.25V4.16671C31.25 3.01611 32.1827 2.08337 33.3333 2.08337C34.4839 2.08337 35.4167 3.01611 35.4167 4.16671V5.20837H42.7083C45.0096 5.20837 46.875 7.07387 46.875 9.37504V41.6667C46.875 43.9679 45.0096 45.8334 42.7083 45.8334H7.29167C4.9905 45.8334 3.125 43.9679 3.125 41.6667V9.37504C3.125 7.07385 4.99048 5.20837 7.29167 5.20837H14.5833V4.16671C14.5833 3.01611 15.5161 2.08337 16.6667 2.08337ZM14.5833 9.37504H7.29167V17.7084H42.7083V9.37504H35.4167V12.5C35.4167 13.6506 34.4839 14.5834 33.3333 14.5834C32.1827 14.5834 31.25 13.6506 31.25 12.5V9.37504H18.75V12.5C18.75 13.6506 17.8173 14.5834 16.6667 14.5834C15.5161 14.5834 14.5833 13.6506 14.5833 12.5V9.37504ZM42.7083 21.875H7.29167V41.6667H42.7083V21.875ZM12.5 27.0834C12.5 25.9328 13.4327 25 14.5833 25H20.8333C21.9839 25 22.9167 25.9328 22.9167 27.0834C22.9167 28.234 21.9839 29.1667 20.8333 29.1667H14.5833C13.4327 29.1667 12.5 28.234 12.5 27.0834ZM27.0833 27.0834C27.0833 25.9328 28.0161 25 29.1667 25H35.4167C36.5673 25 37.5 25.9328 37.5 27.0834C37.5 28.234 36.5673 29.1667 35.4167 29.1667H29.1667C28.0161 29.1667 27.0833 28.234 27.0833 27.0834ZM12.5 35.4167C12.5 34.2661 13.4327 33.3334 14.5833 33.3334H20.8333C21.9839 33.3334 22.9167 34.2661 22.9167 35.4167C22.9167 36.5673 21.9839 37.5 20.8333 37.5H14.5833C13.4327 37.5 12.5 36.5673 12.5 35.4167ZM27.0833 35.4167C27.0833 34.2661 28.0161 33.3334 29.1667 33.3334H35.4167C36.5673 33.3334 37.5 34.2661 37.5 35.4167C37.5 36.5673 36.5673 37.5 35.4167 37.5H29.1667C28.0161 37.5 27.0833 36.5673 27.0833 35.4167Z" fill="#08183A"/>
</svg>
