<svg width="100" height="106" viewBox="0 0 100 106" fill="none" xmlns="http://www.w3.org/2000/svg">
<path d="M81.25 68.75H43.75C40.2982 68.75 37.5 65.9518 37.5 62.5V12.5C37.5 9.04826 40.2982 6.25004 43.75 6.25004H65.625C65.653 6.24641 65.6814 6.24641 65.7094 6.25004H65.7281C65.7576 6.25928 65.788 6.26556 65.8188 6.26879C66.0943 6.28645 66.3664 6.34003 66.6281 6.42816H66.675H66.7219H66.7594C66.817 6.46856 66.8714 6.51349 66.9219 6.56254C67.2623 6.71386 67.5725 6.92561 67.8375 7.18754L86.5875 25.9375C86.8494 26.2025 87.0612 26.5127 87.2125 26.8532C87.2406 26.9219 87.2625 26.9875 87.2844 27.0594L87.3156 27.1469C87.4029 27.4075 87.4544 27.6787 87.4688 27.9532C87.4715 27.9843 87.4788 28.0148 87.4906 28.0438V28.0625C87.4958 28.083 87.4989 28.104 87.5 28.125V62.5C87.5 64.1576 86.8415 65.7474 85.6694 66.9195C84.4973 68.0916 82.9076 68.75 81.25 68.75ZM53.125 50L43.75 62.5H81.25L65.625 40.625L56.25 53.125L53.125 50ZM51.5625 34.375C49.0062 34.3785 46.924 36.4295 46.882 38.9855C46.84 41.5415 48.8536 43.6598 51.4084 43.7473C53.9632 43.8348 56.1171 41.8592 56.25 39.3063V40.2125V39.0625C56.25 36.4737 54.1513 34.375 51.5625 34.375ZM65.625 12.5V28.125H81.25L65.625 12.5Z" fill="#E0E0E0"/>
<path fill-rule="evenodd" clip-rule="evenodd" d="M28.125 46.625C28.125 44.8991 29.5241 43.5 31.25 43.5H43.75C45.4759 43.5 46.875 44.8991 46.875 46.625V49.75H68.75C70.4759 49.75 71.875 51.1491 71.875 52.875C71.875 54.6009 70.4759 56 68.75 56H55.178C60.7884 60.5389 64.618 67.192 65.4534 74.75H68.75C70.4759 74.75 71.875 76.1491 71.875 77.875V90.375C71.875 92.1009 70.4759 93.5 68.75 93.5H56.25C54.5241 93.5 53.125 92.1009 53.125 90.375V77.875C53.125 76.1491 54.5241 74.75 56.25 74.75H59.1534C58.0986 67.378 53.3675 61.1884 46.875 58.1042V59.125C46.875 60.8509 45.4759 62.25 43.75 62.25H31.25C29.5241 62.25 28.125 60.8509 28.125 59.125V58.1042C21.6325 61.1884 16.9014 67.378 15.8466 74.75H18.75C20.4759 74.75 21.875 76.1491 21.875 77.875V90.375C21.875 92.1009 20.4759 93.5 18.75 93.5H6.25C4.52411 93.5 3.125 92.1009 3.125 90.375V77.875C3.125 76.1491 4.52411 74.75 6.25 74.75H9.54663C10.382 67.192 14.2116 60.5389 19.822 56H6.25C4.52411 56 3.125 54.6009 3.125 52.875C3.125 51.1491 4.52411 49.75 6.25 49.75H28.125V46.625ZM34.375 53.5966V49.75H40.625V53.5966C40.624 53.6423 40.624 53.688 40.625 53.7334V56H34.375V53.7334C34.376 53.688 34.376 53.6423 34.375 53.5966ZM9.375 81V87.25H15.625V81H12.5314C12.521 81.0001 12.5105 81.0002 12.5 81.0002C12.4895 81.0002 12.479 81.0001 12.4686 81H9.375ZM59.375 81V87.25H65.625V81H62.5314C62.521 81.0001 62.5105 81.0002 62.5 81.0002C62.4895 81.0002 62.479 81.0001 62.4686 81H59.375Z" fill="#FD5E53"/>
</svg>
