<svg width="75" height="75" viewBox="0 0 75 75" fill="none" xmlns="http://www.w3.org/2000/svg">
<path d="M73 56.5528C70.4539 57.2005 68.8794 56.5807 67.4668 54.459C64.2954 49.7075 60.7945 45.1737 57.4165 40.5562C56.981 39.9587 56.5288 39.3725 55.9648 38.6299C51.9671 44.0235 47.9749 49.1603 44.2284 54.5037C42.8883 56.4132 41.4813 57.2452 38.9799 56.5696L54.0106 36.3965L40.0184 18.1776C42.4249 17.7086 44.0888 17.9487 45.5628 20.1039C48.818 24.861 52.4081 29.3892 55.9872 34.1798C59.5885 29.406 63.134 24.8722 66.4841 20.1597C67.8297 18.2502 69.2758 17.5243 71.6935 18.2279C69.8621 20.6567 68.0698 23.0464 66.2663 25.4194C63.8319 28.6187 61.4422 31.8571 58.9185 34.9894C58.0195 36.1061 58.1647 36.832 58.9687 37.8873C63.6365 44.0235 68.2485 50.2212 73 56.5528ZM3.01675 36.0615C3.41876 34.0458 3.68677 31.9911 4.24511 30.0146C7.5952 18.0492 21.3305 13.0743 30.7666 20.4892C36.2942 24.8387 37.6678 30.9693 37.3942 37.8817H6.23841C5.7694 50.2826 14.6974 57.77 26.0765 53.9509C30.0687 52.6109 32.4193 49.4841 33.5974 45.5757C34.1949 43.6159 35.1831 43.3088 37.0257 43.8672C36.0821 48.7583 33.9436 52.8454 29.4768 55.4026C22.7767 59.2329 13.2122 57.9933 8.18146 52.6723C5.21106 49.5456 3.94919 45.6539 3.39084 41.4495C3.30709 40.7795 3.134 40.1207 3 39.4562C3.01117 38.3246 3.01675 37.1931 3.01675 36.0615ZM6.29425 35.2295H34.4517C34.2674 26.2625 28.684 19.8917 21.0514 19.8359C12.6762 19.7689 6.65717 25.9889 6.29425 35.2295Z" fill="black"/>
</svg>
