<svg width="104" height="104" viewBox="0 0 104 104" fill="none" xmlns="http://www.w3.org/2000/svg">
<path d="M66.5 72.7187L38.375 50.8437L43.4375 46.9062L66.4688 64.8125L89.5313 46.8781L94.625 50.8437L66.5 72.7187ZM66.5 59.375L38.375 37.5L43.4375 33.5625L66.4688 51.4687L89.5313 33.5312L94.625 37.5L66.5 59.375ZM66.5 46.0312L43.4688 28.125L38.375 24.1562L66.5 2.28125L94.625 24.1562L89.5 28.125L66.5 46.0312Z" fill="#E0E0E0"/>
<path d="M62.5 94.625H12.5C9.04822 94.625 6.25 91.8268 6.25 88.375V44.625C6.25 41.1732 9.04822 38.375 12.5 38.375H62.5C65.9518 38.375 68.75 41.1732 68.75 44.625V88.375C68.75 91.8268 65.9518 94.625 62.5 94.625ZM12.5 50.875V88.375H62.5V50.875H12.5ZM56.25 82.125H37.5V75.875H56.25V82.125ZM23.1688 82.125L18.75 77.7063L25.9156 70.5438L18.75 63.375L23.1688 58.9562L34.75 70.5406L23.1719 82.125H23.1688Z" fill="#FD5E53"/>
</svg>
