<svg width="100" height="100" viewBox="0 0 100 100" fill="none" xmlns="http://www.w3.org/2000/svg">
<path d="M35.4165 22.9167C37.7177 22.9167 39.5832 24.7822 39.5832 27.0834V31.2501H43.7498C46.051 31.2501 47.9165 33.1156 47.9165 35.4167C47.9165 37.7179 46.051 39.5834 43.7498 39.5834H39.5832V43.7501C39.5832 46.0513 37.7177 47.9168 35.4165 47.9168C33.1153 47.9168 31.2498 46.0513 31.2498 43.7501V39.5834H27.0832C24.782 39.5834 22.9165 37.7179 22.9165 35.4167C22.9165 33.1156 24.782 31.2501 27.0832 31.2501H31.2498V27.0834C31.2498 24.7822 33.1153 22.9167 35.4165 22.9167Z" fill="url(#paint0_linear)"/>
<path fill-rule="evenodd" clip-rule="evenodd" d="M51.0415 4.16675C25.1532 4.16675 4.1665 25.1534 4.1665 51.0418C4.1665 76.9301 25.1532 97.9168 51.0415 97.9168C63.8789 97.9168 75.5179 92.7508 83.9793 84.3939C84.7656 83.6173 85.2112 82.5601 85.218 81.4549C85.2248 80.3497 84.7922 79.2872 84.0154 78.501L55.8795 50.0228L83.1747 22.8184C83.9749 22.0208 84.4169 20.9324 84.3994 19.8027C84.382 18.673 83.9064 17.5988 83.0819 16.8263C74.704 8.97817 63.4301 4.16675 51.0415 4.16675ZM12.4998 51.0418C12.4998 29.7558 29.7555 12.5001 51.0415 12.5001C59.6758 12.5001 67.6412 15.3353 74.0667 20.1305L47.0585 47.0489C45.4336 48.6683 45.4235 51.2966 47.0358 52.9285L75.0008 81.2337C68.4207 86.4635 60.0985 89.5834 51.0415 89.5834C29.7555 89.5834 12.4998 72.3277 12.4998 51.0418Z" fill="url(#paint1_linear)"/>
<path fill-rule="evenodd" clip-rule="evenodd" d="M83.3332 37.5001C76.4296 37.5001 70.8332 43.0965 70.8332 50.0001C70.8332 56.9036 76.4296 62.5001 83.3332 62.5001C90.2367 62.5001 95.8332 56.9036 95.8332 50.0001C95.8332 43.0965 90.2367 37.5001 83.3332 37.5001ZM79.1665 50.0001C79.1665 47.6989 81.032 45.8334 83.3332 45.8334C85.6344 45.8334 87.4998 47.6989 87.4998 50.0001C87.4998 52.3013 85.6344 54.1668 83.3332 54.1668C81.032 54.1668 79.1665 52.3013 79.1665 50.0001Z" fill="url(#paint2_linear)"/>
<defs>
<linearGradient id="paint0_linear" x1="49.9998" y1="4.16675" x2="49.9998" y2="97.9168" gradientUnits="userSpaceOnUse">
<stop stop-color="#FD5E53"/>
<stop offset="1" stop-color="#08183A"/>
</linearGradient>
<linearGradient id="paint1_linear" x1="49.9998" y1="4.16675" x2="49.9998" y2="97.9168" gradientUnits="userSpaceOnUse">
<stop stop-color="#FD5E53"/>
<stop offset="1" stop-color="#08183A"/>
</linearGradient>
<linearGradient id="paint2_linear" x1="49.9998" y1="4.16675" x2="49.9998" y2="97.9168" gradientUnits="userSpaceOnUse">
<stop stop-color="#FD5E53"/>
<stop offset="1" stop-color="#08183A"/>
</linearGradient>
</defs>
</svg>
