<svg width="75" height="75" viewBox="0 0 75 75" fill="none" xmlns="http://www.w3.org/2000/svg">
<path d="M66.7353 35.0024L40.9944 9.26312C40.2065 8.47367 39.1044 8 37.9992 8C36.894 8 35.7919 8.47367 35.0024 9.26312L29.4763 14.7893L35.9451 21.2597C36.5814 20.9454 37.2098 20.7923 37.9992 20.7923C40.6834 20.7923 42.7359 22.8386 42.7359 25.529C42.7359 26.3185 42.5749 26.9469 42.2623 27.5753L48.5779 33.8909C49.2126 33.5767 49.841 33.4235 50.6305 33.4235C53.3146 33.4235 55.3672 35.4698 55.3672 38.1603C55.3672 40.8428 53.3146 42.897 50.6305 42.897C47.9463 42.897 45.8937 40.8428 45.8937 38.1603C45.8937 37.3708 46.0548 36.7345 46.3674 36.1061L40.0518 29.7905C39.8939 29.7905 39.7392 29.9436 39.5781 29.9436V46.369C41.4728 46.9974 42.7359 48.7374 42.7359 50.7899C42.7359 53.4741 40.6834 55.5266 37.9992 55.5266C35.3151 55.5266 33.2625 53.4741 33.2625 50.7899C33.2625 48.7374 34.5256 46.9974 36.4203 46.369V29.7889C34.5256 29.1526 33.2625 27.4205 33.2625 25.3664C33.2625 24.5769 33.4235 23.9485 33.7362 23.3138L27.2627 16.8435L9.26312 35.0009C8.47367 35.7919 8 36.894 8 37.9992C8 39.1044 8.47367 40.2065 9.26312 40.996L35.004 66.7353C35.7935 67.5248 36.8971 68 38.0008 68C39.106 68 40.2081 67.5263 40.9976 66.7369L66.7353 40.9944C67.5248 40.2049 68 39.1013 68 37.9976C68 36.8924 67.5263 35.7903 66.7369 35.0009L66.7353 35.0024Z" fill="#F4511E"/>
</svg>
