<svg width="75" height="75" viewBox="0 0 75 75" fill="none" xmlns="http://www.w3.org/2000/svg">
<path d="M49.9646 43.7273L36.6959 39.9502L33.7334 6.5481H66.2646L63.3063 39.9523L49.973 43.7273H49.9646ZM41.0876 27.8168L41.5376 33.7898L50.0021 36.4231L58.3167 34.0481L60.2021 13.3752H39.7855L40.1146 17.4356H55.8001L55.4126 21.6523H45.1251L45.4959 25.6356H55.0792L54.5126 31.0939L50.0042 32.3439L45.4209 31.0939L45.1292 27.8231H41.0876V27.8168Z" fill="#2F80ED"/>
<path d="M24.9646 68.7249L11.6021 64.9207L8.6167 31.2749H41.3855L38.4084 64.9207L24.9646 68.7249ZM16.0229 52.702L16.5334 59.2082L24.9979 61.4687L33.3896 59.2187L34.5542 46.4832H19.5875L19.2271 42.2478H34.9209L35.2834 38.1624H14.7209L15.8084 50.6624H30.05L29.5438 56.0082L25.0042 57.2582L20.3875 55.9937L20.0938 52.702H16.0229Z" fill="#F2994A"/>
</svg>
