<svg width="75" height="75" viewBox="0 0 75 75" fill="none" xmlns="http://www.w3.org/2000/svg">
<path d="M65.625 65.625H9.375V9.375H65.625V65.625ZM28.4375 53.85L24.1625 56.4875C24.8287 57.9498 25.9086 59.185 27.2687 60.0406C28.7464 60.8874 30.4253 61.3193 32.1281 61.2906C33.0213 61.2844 33.9111 61.1796 34.7812 60.9781C36.6019 60.5302 38.1454 59.3277 39.025 57.6719C39.9016 55.6094 40.2247 53.3538 39.9625 51.1281C39.9625 50.7031 39.9625 50.2687 39.9625 49.8312C39.9781 46.6219 39.9625 43.3563 39.9625 40.1938C39.9625 38.5813 39.9625 36.9656 39.9625 35.3469V35.2156H34.6875C34.6875 37.4844 34.6875 39.7479 34.6875 42.0063C34.6875 44.2781 34.6875 46.5469 34.6875 48.8219C34.6875 49.4031 34.6875 49.9719 34.6875 50.5188C34.8444 52.0785 34.7313 53.6537 34.3531 55.175C33.8992 56.0511 32.965 56.5705 31.9813 56.4938C31.5406 56.4925 31.1025 56.4262 30.6812 56.2969C29.8349 55.8544 29.1526 55.1523 28.7344 54.2938L28.6313 54.1187C28.5344 53.9531 28.4688 53.8375 28.4375 53.8375V53.85ZM47.0281 53.225L42.7375 55.6844C43.0888 56.453 43.5734 57.1534 44.1688 57.7531C44.3156 57.9156 44.4813 58.0906 44.6344 58.2844C46.7325 60.1608 49.4744 61.1539 52.2875 61.0563C55.9278 61.415 59.3671 59.3247 60.725 55.9281V55.9031C61.0807 54.6547 61.1374 53.3401 60.8906 52.0656L60.9969 52.2188C60.5344 49.3156 58.4313 47.3 53.9594 45.4844C53.6125 45.3219 53.2531 45.1719 52.9031 45.0156C51.5125 44.4156 50.2 43.8531 49.7438 42.8281C49.5405 42.3008 49.5034 41.724 49.6375 41.175C49.9611 40.0754 51.0221 39.3623 52.1625 39.4781C52.5107 39.4781 52.857 39.5287 53.1906 39.6281C54.219 39.9746 55.051 40.743 55.4781 41.7406C57.9 40.1563 57.9 40.1563 59.5906 39.1031C59.2038 38.4429 58.7436 37.8286 58.2188 37.2719C56.6146 35.5522 54.313 34.6592 51.9688 34.8469H51.5938L49.9438 35.0563C48.3942 35.404 46.9922 36.2279 45.9344 37.4125C44.6908 38.9676 44.1309 40.9604 44.3823 42.9357C44.6338 44.9109 45.6752 46.6998 47.2688 47.8937C48.6374 48.8305 50.1136 49.5995 51.6656 50.1844C53.6688 51.0281 55.3969 51.7469 55.7469 53.0625C55.9587 53.8244 55.8026 54.6416 55.325 55.2719C54.4767 56.1095 53.3032 56.5323 52.1156 56.4281C51.7886 56.4271 51.462 56.4062 51.1375 56.3656C49.3702 55.9696 47.8657 54.8181 47.0219 53.2156L47.0281 53.225Z" fill="#F2C94C"/>
</svg>
