<svg width="100" height="100" viewBox="0 0 100 100" fill="none" xmlns="http://www.w3.org/2000/svg">
<path fill-rule="evenodd" clip-rule="evenodd" d="M12.4999 16.6667C12.4999 14.3655 14.3654 12.5 16.6665 12.5H83.3332C85.6344 12.5 87.4999 14.3655 87.4999 16.6667V57.7068L95.6489 84.1913C96.0378 85.4551 95.8037 86.8285 95.0182 87.8921C94.2326 88.9557 92.9888 89.5833 91.6665 89.5833H8.3332C7.01093 89.5833 5.76715 88.9557 4.98158 87.8921C4.19601 86.8285 3.96193 85.4551 4.35079 84.1913L12.4999 57.7068V16.6667ZM19.7439 62.5L13.9747 81.25H34.4487L37.4859 71.6588C38.0344 69.9269 39.6416 68.75 41.4582 68.75H58.5415C60.3581 68.75 61.9654 69.9269 62.5138 71.6588L65.551 81.25H86.025L80.2558 62.5H19.7439ZM79.1665 54.1667V20.8333H20.8332V54.1667H79.1665ZM56.8098 81.25L55.4904 77.0833H44.5093L43.1899 81.25H56.8098Z" fill="url(#paint0_linear)"/>
<defs>
<linearGradient id="paint0_linear" x1="49.9999" y1="12.5" x2="49.9999" y2="89.5833" gradientUnits="userSpaceOnUse">
<stop stop-color="#FD5E53"/>
<stop offset="1" stop-color="#08183A"/>
</linearGradient>
</defs>
</svg>
