<svg width="40" height="40" viewBox="0 0 40 40" fill="none" xmlns="http://www.w3.org/2000/svg">
<path d="M20 35.0001C17.8949 33.2045 15.9437 31.2359 14.1667 29.1151C11.5 25.9301 8.33338 21.1868 8.33338 16.6668C8.33101 11.946 11.1738 7.68907 15.5352 5.88241C19.8965 4.07576 24.9168 5.07548 28.2534 8.41508C30.4475 10.5994 31.6766 13.5707 31.6668 16.6668C31.6668 21.1868 28.5 25.9301 25.8334 29.1151C24.0564 31.2359 22.1052 33.2045 20 35.0001ZM20 11.6668C18.2137 11.6668 16.5631 12.6197 15.6699 14.1668C14.7768 15.7138 14.7768 17.6197 15.6699 19.1668C16.5631 20.7138 18.2137 21.6668 20 21.6668C22.7615 21.6668 25 19.4282 25 16.6668C25 13.9053 22.7615 11.6668 20 11.6668Z" fill="white"/>
</svg>
