<svg width="75" height="75" viewBox="0 0 75 75" fill="none" xmlns="http://www.w3.org/2000/svg">
<path fill-rule="evenodd" clip-rule="evenodd" d="M51.1444 25.3203C52.0849 28.0408 52.7622 30.8182 52.9849 33.6969C53.2614 37.2682 53.1349 40.8143 52.3819 44.327C52.3614 44.4236 52.3181 44.5145 52.2858 44.6082C52.0497 44.6088 51.8089 44.5795 51.578 44.6152C49.6274 44.9217 47.6786 45.2393 45.7298 45.5551C43.7153 45.8814 41.698 46.1949 39.687 46.5436C38.9745 46.6666 38.0927 46.5195 37.805 47.5051C37.7968 47.532 37.7147 47.5367 37.6673 47.5519L37.7646 41.6627C37.7312 36.926 37.6983 32.1893 37.6655 27.4525L38.6042 27.2914C40.1394 27.04 41.6745 26.7852 43.2108 26.5408C45.0442 26.2496 46.8794 25.9666 48.714 25.6824C49.5231 25.5564 50.3335 25.441 51.1444 25.3203Z" fill="#439934"/>
<path fill-rule="evenodd" clip-rule="evenodd" d="M35.7287 64.7198C34.7385 63.8684 33.7137 63.0545 32.7644 62.1592C27.6568 57.3416 23.9209 51.6715 22.081 44.8354C21.5742 42.954 21.2361 41.042 21.1277 39.0979C21.0515 37.7374 20.9414 36.3645 21.0375 35.011C21.2935 31.411 21.8139 27.8456 22.8697 24.378L22.9277 24.2971C23.0303 24.4336 23.1779 24.5543 23.2301 24.7084C24.2607 27.7436 25.2838 30.7811 26.3015 33.8204C29.4996 43.3711 32.6935 52.9243 35.8969 62.4727C35.9596 62.659 36.1219 62.812 36.2385 62.9801L35.7287 64.7198Z" fill="#45A538"/>
<path fill-rule="evenodd" clip-rule="evenodd" d="M51.1443 25.3204C50.3333 25.4411 49.5224 25.5565 48.7132 25.6813C46.8786 25.9655 45.0435 26.2485 43.2101 26.5397C41.6737 26.784 40.1386 27.0389 38.6034 27.2903L37.6648 27.4514L37.6577 26.8391C37.6267 26.3358 37.5734 25.8331 37.5675 25.3297C37.5271 22.12 37.5019 18.9102 37.462 15.7004C37.4374 13.6913 37.4005 11.6827 37.3595 9.67407C37.3343 8.42602 37.3073 7.17739 37.2511 5.9311C37.2206 5.26138 37.1128 4.59517 37.0689 3.92544C37.0443 3.54048 37.0782 3.15259 37.0859 2.76587C37.5646 3.69341 38.0327 4.62798 38.5249 5.54849C39.3025 7.00395 40.5411 8.07622 41.6562 9.24634C46.0642 13.8706 49.1937 19.2471 51.1443 25.3204Z" fill="#46A037"/>
<path fill-rule="evenodd" clip-rule="evenodd" d="M37.6666 47.5514C37.7141 47.5362 37.7967 47.5315 37.8043 47.5046C38.092 46.519 38.9738 46.6661 39.6863 46.543C41.6973 46.195 43.7146 45.8809 45.7291 45.5546C47.6779 45.2387 49.6268 44.9212 51.5773 44.6147C51.8082 44.5784 52.049 44.6083 52.2852 44.6077C51.9207 45.9085 51.6336 47.2374 51.1713 48.5024C50.6463 49.9374 50.0111 51.3378 49.3367 52.7106C48.3289 54.7632 47.0732 56.6774 45.6143 58.4311C44.4898 59.7835 43.2365 61.0333 41.9803 62.2678C41.2859 62.9505 40.4674 63.5065 39.7057 64.12L39.5082 63.9852L38.7969 63.377L38.0609 61.7639C37.5541 59.8755 37.2881 57.953 37.2441 55.9995L37.2576 55.6708L37.3578 54.2493C37.3912 53.7641 37.4357 53.2796 37.4562 52.7932C37.5318 51.046 37.5975 49.2987 37.6666 47.5514Z" fill="#409433"/>
<path fill-rule="evenodd" clip-rule="evenodd" d="M37.6662 47.5514C37.5971 49.2987 37.5314 51.0459 37.457 52.7938C37.4365 53.2801 37.392 53.7647 37.3586 54.2499L36.9104 54.4192C35.9148 51.4883 34.9187 48.5885 33.9443 45.6811C32.333 40.8711 30.741 36.0536 29.132 31.2424C27.833 27.3588 26.5234 23.4793 25.2063 19.6016C25.1447 19.42 24.9678 19.2782 24.8447 19.1176L27.7135 13.843C27.8119 14.0141 27.942 14.1741 28.0041 14.3581C29.3313 18.2856 30.6561 22.2137 31.9697 26.1459C33.6783 31.2612 35.3764 36.3805 37.0838 41.4963C37.1518 41.7008 37.2643 41.8895 37.3715 42.1186L37.7641 41.6616C37.7313 43.625 37.6984 45.5879 37.6662 47.5514Z" fill="#4FAA41"/>
<path fill-rule="evenodd" clip-rule="evenodd" d="M24.8454 19.1182C24.9685 19.2787 25.1448 19.4205 25.2069 19.6021C26.5241 23.4799 27.8337 27.3594 29.1327 31.243C30.7417 36.0541 32.3337 40.8717 33.945 45.6816C34.9188 48.5885 35.9149 51.4889 36.911 54.4197L37.3593 54.2504L37.2591 55.6719L37.1683 55.9994C37.0124 57.5557 36.8812 59.1154 36.6913 60.6682C36.5958 61.4463 36.3931 62.2103 36.239 62.9809C36.1229 62.8127 35.9601 62.6598 35.8974 62.4734C32.694 52.9244 29.5001 43.3719 26.3021 33.8211C25.2843 30.7818 24.2612 27.7443 23.2306 24.7092C23.1784 24.5551 23.0313 24.4344 22.9282 24.2979C23.5669 22.5711 24.2062 20.8443 24.8454 19.1182Z" fill="#4AA73C"/>
<path fill-rule="evenodd" clip-rule="evenodd" d="M37.7635 41.6621L37.3709 42.1191C37.2637 41.89 37.1512 41.7007 37.0832 41.4968C35.3764 36.381 33.6777 31.2617 31.9691 26.1464C30.6555 22.2142 29.3307 18.2861 28.0035 14.3585C27.942 14.1746 27.8119 14.014 27.7129 13.8435L31.2607 9.17651C31.3727 9.32593 31.532 9.45894 31.59 9.6271C32.575 12.5105 33.5512 15.3974 34.5215 18.2861C35.4279 20.9837 36.3209 23.6855 37.2379 26.3796C37.2994 26.5601 37.5133 26.6878 37.6563 26.8402L37.6633 27.4525C37.6973 32.188 37.7307 36.9253 37.7635 41.6621Z" fill="#57AE47"/>
<path fill-rule="evenodd" clip-rule="evenodd" d="M37.6577 26.8391C37.5147 26.6867 37.3009 26.559 37.2394 26.3785C36.3224 23.6844 35.4294 20.9826 34.5229 18.285C33.5526 15.3963 32.5765 12.51 31.5915 9.62598C31.5335 9.45781 31.3741 9.3248 31.2622 9.17539C32.4159 8.0457 33.5339 6.87559 34.7339 5.79805C35.8009 4.84063 36.6587 3.81406 36.6979 2.30117C36.6997 2.23848 36.7325 2.17578 36.7829 2L37.087 2.76523C37.0794 3.15254 37.0448 3.53984 37.07 3.9248C37.114 4.59453 37.2218 5.26074 37.2522 5.93047C37.3085 7.17676 37.3354 8.42539 37.3606 9.67344C37.4011 11.682 37.438 13.6906 37.4632 15.6998C37.5024 18.9096 37.5282 22.1193 37.5687 25.3291C37.5733 25.8336 37.6261 26.3357 37.6577 26.8391Z" fill="#60B24F"/>
<path fill-rule="evenodd" clip-rule="evenodd" d="M36.2378 62.9802C36.3919 62.2097 36.5946 61.4451 36.6901 60.6675C36.8806 59.1154 37.0112 57.555 37.1671 55.9988L37.2058 55.9929L37.2444 55.9994C37.2884 57.9529 37.5544 59.8753 38.0612 61.7638C37.9581 61.8998 37.8122 62.021 37.7577 62.1746C37.3317 63.3757 36.9304 64.5863 36.5021 65.7874C36.4435 65.9515 36.2806 66.0792 36.1657 66.2234L35.728 64.7199L36.2378 62.9802Z" fill="#A9AA88"/>
<path fill-rule="evenodd" clip-rule="evenodd" d="M36.1665 66.224C36.2813 66.0798 36.4448 65.9521 36.5028 65.788C36.9312 64.5869 37.3331 63.3769 37.7585 62.1751C37.813 62.0216 37.9583 61.9003 38.062 61.7644L38.7974 63.3781C38.6521 63.5843 38.4517 63.7701 38.3708 63.9998L36.9622 68.1359C36.9042 68.3017 36.7062 68.4189 36.5737 68.5589L36.1665 66.224Z" fill="#B6B598"/>
<path fill-rule="evenodd" clip-rule="evenodd" d="M36.5737 68.5583C36.7067 68.4188 36.9042 68.3011 36.9622 68.1353L38.3708 63.9991C38.4511 63.77 38.6521 63.5837 38.7974 63.3774L39.5093 63.9851C39.1653 64.3249 38.9743 64.7175 39.0892 65.2138L38.8729 65.9216C38.7745 66.0429 38.6321 66.1483 38.5835 66.2872C38.0919 67.6952 37.6226 69.1108 37.1274 70.5188C37.0647 70.6976 36.8907 70.8376 36.7677 70.9946C36.7038 70.1819 36.6388 69.371 36.5737 68.5583Z" fill="#C2C1A7"/>
<path fill-rule="evenodd" clip-rule="evenodd" d="M36.7683 70.9947C36.8907 70.8371 37.0647 70.697 37.128 70.5189C37.6231 69.1115 38.0925 67.6958 38.5841 66.2873C38.6327 66.149 38.7745 66.0429 38.8735 65.9216L38.5753 69.1707C38.4956 69.2626 38.3802 69.3429 38.3421 69.4501C38.0052 70.3958 37.6876 71.3486 37.3495 72.2943C37.2798 72.4894 37.1462 72.6617 37.0419 72.8439C36.9493 72.7226 36.7835 72.6054 36.7759 72.4789C36.746 71.9861 36.7665 71.4898 36.7683 70.9947Z" fill="#CECDB7"/>
<path fill-rule="evenodd" clip-rule="evenodd" d="M37.0415 72.8439C37.1458 72.6611 37.2794 72.4888 37.3491 72.2943C37.6878 71.3492 38.0048 70.3964 38.3417 69.4501C38.3798 69.3429 38.4958 69.2632 38.5749 69.1707L38.5819 71.3035L37.8683 73.1339L37.0415 72.8439Z" fill="#DBDAC7"/>
<path fill-rule="evenodd" clip-rule="evenodd" d="M37.8682 73.1347L38.5818 71.3042L38.7289 73.4698L37.8682 73.1347Z" fill="#EBE9DC"/>
<path fill-rule="evenodd" clip-rule="evenodd" d="M39.0892 65.2145C38.9743 64.7183 39.1647 64.3251 39.5093 63.9858L39.7067 64.1206L39.0892 65.2145Z" fill="#CECDB7"/>
<path fill-rule="evenodd" clip-rule="evenodd" d="M37.2448 56L37.2062 55.9936L37.1675 55.9994L37.2583 55.6719L37.2448 56Z" fill="#4FAA41"/>
</svg>
