<svg width="75" height="75" viewBox="0 0 75 75" fill="none" xmlns="http://www.w3.org/2000/svg">
<path d="M61.9488 21.2947L40.0451 8.58949C38.6651 7.8035 36.8575 7.8035 35.4666 8.58949L13.3917 21.2947C11.9681 22.1139 11 23.6536 11 25.3005V50.6772C11 52.3241 11.9884 53.8643 13.4125 54.688L19.2325 58.0065C22.0246 59.382 22.7981 59.382 24.0684 59.382C28.2038 59.382 30.3513 56.8816 30.3513 52.5205V27.4674C30.3518 27.1136 30.5726 26.5872 30.2248 26.5872H27.4351C27.0818 26.5872 26.3822 27.1136 26.3822 27.4669V52.5201C26.3822 54.4532 24.5879 56.377 21.32 54.743L15.305 51.2632C15.0956 51.1491 14.9696 50.9193 14.9696 50.6772V25.3005C14.9696 25.0613 15.1993 24.8212 15.4117 24.6986L37.4321 12.0152C37.638 11.8986 37.9293 11.8986 38.1342 12.0152L59.9486 24.6956C60.1575 24.8212 60.1243 25.0539 60.1243 25.3005V50.6772C60.1243 50.9193 60.1699 51.155 59.964 51.2716L38.0652 63.9624C37.8777 64.0751 37.6335 64.0751 37.4276 63.9624L31.8121 60.6136C31.6429 60.5153 31.439 60.4801 31.2762 60.5709C29.7157 61.4556 29.4259 61.5732 27.9621 62.0808C27.6014 62.2064 27.0694 62.4242 28.1645 63.038L35.5073 67.3817C36.2099 67.7886 37.0093 68 37.8132 68C38.6279 68 39.4253 67.7886 40.1284 67.3817L61.9493 54.688C63.3739 53.8583 64.0939 52.3241 64.0939 50.6772V25.3005C64.0934 23.6536 63.3734 22.1179 61.9488 21.2947ZM44.6061 46.656C38.7872 46.656 37.506 45.0508 37.0788 42.1574C37.0282 41.8458 36.7642 41.4732 36.4466 41.4732H33.6034C33.2516 41.4732 32.9683 41.8999 32.9683 42.2502C32.9683 45.9548 34.9828 50.4435 44.6061 50.4435C51.5718 50.4435 55.5662 47.7367 55.5662 42.9464C55.5662 38.1967 52.3573 36.9503 45.6015 36.0561C38.7728 35.1535 38.0791 34.6975 38.0791 33.0978C38.0791 31.7789 38.6666 30.0199 43.7229 30.0199C48.2403 30.0199 49.9056 30.9894 50.5908 34.0346C50.6499 34.3209 50.9113 34.5264 51.2066 34.5264H54.0617C54.2374 34.5264 54.4046 34.4554 54.5277 34.3299C54.6472 34.1949 54.7098 34.0257 54.6944 33.8441C54.2513 28.5997 50.7679 26.156 43.7224 26.156C37.4544 26.156 33.716 28.8027 33.716 33.2392C33.716 38.0514 37.436 39.3812 43.4525 39.9761C50.6499 40.6817 51.2096 41.7337 51.2096 43.1493C51.2096 45.6085 49.2357 46.656 44.6061 46.656Z" fill="#83CD29"/>
</svg>
