<svg width="100" height="100" viewBox="0 0 100 100" fill="none" xmlns="http://www.w3.org/2000/svg">
<path fill-rule="evenodd" clip-rule="evenodd" d="M4.1665 50.0001C4.1665 24.687 24.6868 4.16675 49.9998 4.16675C75.3129 4.16675 95.8332 24.687 95.8332 50.0001C95.8332 54.562 93.2078 57.5273 90.114 59.3198C87.2566 60.9754 83.6241 61.8836 80.4073 62.5801C79.3814 62.8022 78.3883 63.0049 77.4248 63.2015C75.1189 63.6721 72.9822 64.1082 70.9686 64.6938C68.0802 65.5339 66.4245 66.4368 65.6187 67.3464L62.4998 64.5834L65.6187 67.3464C64.4276 68.6909 63.6637 70.6099 63.1657 73.2287C62.8105 75.0971 62.6445 76.9344 62.4645 78.9266C62.3813 79.8473 62.2951 80.8012 62.1859 81.8064C61.8795 84.6263 61.3695 88.0853 59.6585 90.8432C58.7403 92.3233 57.4624 93.6365 55.7212 94.5479C54.0033 95.4472 52.0684 95.8334 49.9998 95.8334C24.6868 95.8334 4.1665 75.3131 4.1665 50.0001ZM49.9998 12.5001C29.2891 12.5001 12.4998 29.2894 12.4998 50.0001C12.4998 70.7108 29.2891 87.5001 49.9998 87.5001C51.0355 87.5001 51.5808 87.3092 51.8565 87.1649C52.1089 87.0328 52.3378 86.836 52.5772 86.4502C53.1814 85.4763 53.589 83.7801 53.9013 80.9062C53.9763 80.2156 54.0462 79.4455 54.1206 78.6263C54.3168 76.464 54.5441 73.9594 54.9791 71.672C55.6004 68.4048 56.7553 64.7843 59.381 61.8205C61.8318 59.0539 65.4503 57.6202 68.6413 56.6921C71.0046 56.0047 73.6676 55.4611 76.1012 54.9644C76.9878 54.7834 77.8439 54.6087 78.644 54.4354C81.9048 53.7295 84.3427 53.0326 85.9363 52.1093C87.2936 51.3229 87.4998 50.7357 87.4998 50.0001C87.4998 29.2894 70.7105 12.5001 49.9998 12.5001ZM47.9165 29.1667C47.9165 23.4137 52.5801 18.7501 58.3332 18.7501C64.0862 18.7501 68.7498 23.4137 68.7498 29.1667C68.7498 34.9198 64.0862 39.5834 58.3332 39.5834C52.5801 39.5834 47.9165 34.9198 47.9165 29.1667ZM58.3332 27.0834C57.1825 27.0834 56.2498 28.0161 56.2498 29.1667C56.2498 30.3174 57.1825 31.2501 58.3332 31.2501C59.4839 31.2501 60.4165 30.3174 60.4165 29.1667C60.4165 28.0161 59.4839 27.0834 58.3332 27.0834ZM22.9165 37.5001C22.9165 31.747 27.5801 27.0834 33.3332 27.0834C39.0862 27.0834 43.7498 31.747 43.7498 37.5001C43.7498 43.2531 39.0862 47.9167 33.3332 47.9167C27.5801 47.9167 22.9165 43.2531 22.9165 37.5001ZM33.3332 35.4167C32.1825 35.4167 31.2498 36.3494 31.2498 37.5001C31.2498 38.6508 32.1825 39.5834 33.3332 39.5834C34.4839 39.5834 35.4165 38.6508 35.4165 37.5001C35.4165 36.3494 34.4839 35.4167 33.3332 35.4167ZM24.9998 64.5834C24.9998 58.8304 29.6634 54.1667 35.4165 54.1667C41.1696 54.1667 45.8332 58.8304 45.8332 64.5834C45.8332 70.3365 41.1696 75.0001 35.4165 75.0001C29.6634 75.0001 24.9998 70.3365 24.9998 64.5834ZM35.4165 62.5001C34.2658 62.5001 33.3332 63.4327 33.3332 64.5834C33.3332 65.7341 34.2658 66.6667 35.4165 66.6667C36.5672 66.6667 37.4998 65.7341 37.4998 64.5834C37.4998 63.4327 36.5672 62.5001 35.4165 62.5001Z" fill="url(#paint0_linear)"/>
<defs>
<linearGradient id="paint0_linear" x1="49.9998" y1="4.16675" x2="49.9998" y2="95.8334" gradientUnits="userSpaceOnUse">
<stop stop-color="#FD5E53"/>
<stop offset="1" stop-color="#08183A"/>
</linearGradient>
</defs>
</svg>
