<svg width="75" height="75" viewBox="0 0 75 75" fill="none" xmlns="http://www.w3.org/2000/svg">
<path d="M18.125 7.5H56.875C62.75 7.5 67.5 12.3718 67.5 18.3974V56.6026C67.5 62.6282 62.75 67.5 56.875 67.5H18.125C12.25 67.5 7.5 62.6282 7.5 56.6026V18.3974C7.5 12.3718 12.25 7.5 18.125 7.5Z" fill="#001E36"/>
<path fill-rule="evenodd" clip-rule="evenodd" d="M20 24.3051V50.2661C20 50.4932 20.1 50.5941 20.3 50.5941H25.05H25.15C25.325 50.5689 25.45 50.4175 25.425 50.2409V42.1423H25.4251C25.9001 42.1423 26.25 42.1423 26.5 42.1675C26.75 42.1927 27.15 42.1927 27.75 42.1927C29.8 42.1927 31.675 41.9657 33.375 41.3349C35 40.7294 36.4 39.6698 37.4 38.257C38.4 36.8441 38.9 35.0528 38.9 32.8831C38.9 31.7478 38.7 30.6629 38.325 29.6033C37.925 28.5184 37.3 27.5345 36.5 26.7271C35.55 25.7937 34.4 25.0872 33.15 24.6583C31.75 24.1285 30.05 23.8762 28 23.8762C27.25 23.8762 26.5 23.8762 25.725 23.9015C25.3508 23.9136 24.9883 23.9199 24.6375 23.926C24.2616 23.9326 23.8991 23.9389 23.55 23.9519C23.2226 23.9641 22.907 23.9704 22.6003 23.9766C22.2746 23.9831 21.959 23.9894 21.65 24.0024C21.075 24.0276 20.675 24.0276 20.25 24.0276C20.075 24.0276 20 24.1285 20 24.3051ZM25.45 37.374V28.8969C25.625 28.8717 25.975 28.8465 26.475 28.8717C26.95 28.8465 27.525 28.8465 28.175 28.8465C29.2 28.8212 30.2 28.9726 31.125 29.3511C31.85 29.6286 32.45 30.1332 32.875 30.7891C33.275 31.4703 33.475 32.2524 33.45 33.0345C33.45 34.1446 33.2 35.0024 32.675 35.6332C32.125 36.2639 31.425 36.7433 30.625 36.9703C29.7 37.2731 28.725 37.4245 27.75 37.4245H26.425C26.1465 37.4245 25.8465 37.4027 25.525 37.3794C25.5001 37.3776 25.4751 37.3758 25.45 37.374Z" fill="#31A8FF"/>
<path d="M54.5 35.8349C53.75 35.4312 52.95 35.1537 52.1 34.9771C51.175 34.7753 50.25 34.6491 49.3 34.6491C48.8 34.6239 48.275 34.6996 47.8 34.8257C47.475 34.9014 47.2 35.078 47.025 35.3303C46.9 35.5321 46.825 35.7844 46.825 36.0115C46.825 36.2386 46.925 36.4656 47.075 36.6675C47.3 36.945 47.6 37.172 47.925 37.3487C48.5 37.6514 49.1 37.9289 49.7 38.1812C51.05 38.6354 52.35 39.2661 53.55 40.023C54.375 40.5528 55.05 41.2592 55.525 42.117C55.925 42.9243 56.125 43.8074 56.1 44.7156C56.125 45.9014 55.775 47.0872 55.125 48.0711C54.425 49.0803 53.45 49.8624 52.325 50.3165C51.1 50.8464 49.6 51.1239 47.8 51.1239C46.65 51.1239 45.525 51.023 44.4 50.7959C43.525 50.6445 42.65 50.367 41.85 49.9886C41.675 49.8876 41.55 49.711 41.575 49.5092V45.1193C41.575 45.0436 41.6 44.9427 41.675 44.8922C41.75 44.8418 41.825 44.867 41.9 44.9175C42.875 45.4977 43.9 45.9014 45 46.1537C45.95 46.406 46.95 46.5321 47.95 46.5321C48.9 46.5321 49.575 46.406 50.025 46.1789C50.425 46.0023 50.7 45.5734 50.7 45.1193C50.7 44.7661 50.5 44.4381 50.1 44.1101C49.7 43.7821 48.875 43.4037 47.65 42.9243C46.375 42.4702 45.2 41.8647 44.1 41.1078C43.325 40.5528 42.675 39.8211 42.2 38.9633C41.8 38.156 41.6 37.273 41.625 36.3899C41.625 35.3051 41.925 34.2707 42.475 33.3372C43.1 32.328 44.025 31.5207 45.1 31.0161C46.275 30.4106 47.75 30.1331 49.525 30.1331C50.55 30.1331 51.6 30.2087 52.625 30.3601C53.375 30.461 54.1 30.6629 54.775 30.9404C54.875 30.9656 54.975 31.0665 55.025 31.1675C55.05 31.2684 55.075 31.3693 55.075 31.4702V35.5826C55.075 35.6835 55.025 35.7844 54.95 35.8349C54.725 35.8854 54.6 35.8854 54.5 35.8349Z" fill="#31A8FF"/>
</svg>
