<svg width="75" height="75" viewBox="0 0 75 75" fill="none" xmlns="http://www.w3.org/2000/svg">
<path d="M37.9999 43.2524C41.0172 43.2524 43.4631 40.8065 43.4631 37.7892C43.4631 34.7719 41.0172 32.3259 37.9999 32.3259C34.9826 32.3259 32.5366 34.7719 32.5366 37.7892C32.5366 40.8065 34.9826 43.2524 37.9999 43.2524Z" fill="#61DAFB"/>
<path d="M58.7508 28.7796C57.6965 28.3962 56.5942 28.0128 55.4441 27.6773C55.7316 26.5272 55.9712 25.377 56.1629 24.2748C57.1693 17.9489 56.0671 13.492 53 11.7668C52.0895 11.2396 51.0831 11 49.9329 11C46.5783 11 42.3131 13.492 38 17.6613C33.6869 13.492 29.4217 11 26.0671 11C24.9169 11 23.9105 11.2396 23 11.7668C19.9329 13.5399 18.8307 17.9968 19.8371 24.2748C20.0288 25.377 20.2684 26.5272 20.5559 27.6773C19.4058 28.0128 18.3035 28.3482 17.2492 28.7796C11.2588 31.0799 8 34.2428 8 37.7891C8 41.3355 11.3067 44.4984 17.2492 46.7987C18.3035 47.1821 19.4058 47.5655 20.5559 47.901C20.2684 49.0511 20.0288 50.2013 19.8371 51.3035C18.8307 57.6294 19.9329 62.0863 23 63.8115C23.9105 64.3387 24.9169 64.5783 26.0671 64.5783C29.4696 64.5783 33.7348 62.0863 38 57.9169C42.3131 62.0863 46.5783 64.5783 49.9329 64.5783C51.0831 64.5783 52.0895 64.3387 53 63.8115C56.0671 62.0383 57.1693 57.5815 56.1629 51.3035C55.9712 50.2013 55.7316 49.0511 55.4441 47.901C56.5942 47.5655 57.6965 47.23 58.7508 46.7987C64.7412 44.4984 68 41.3355 68 37.7891C68 34.2428 64.7412 31.0799 58.7508 28.7796ZM51.6581 14.1629C53.623 15.3131 54.2939 18.8594 53.4792 23.8914C53.3355 24.8978 53.0958 25.9521 52.8083 27.0543C50.3163 26.4792 47.6805 26.0958 44.901 25.8562C43.2716 23.5559 41.5942 21.4952 39.9169 19.6262C43.4633 16.1278 47.0575 13.7316 49.9808 13.7316C50.6038 13.7316 51.1789 13.8754 51.6581 14.1629ZM46.2907 42.5815C45.4281 44.115 44.4217 45.6486 43.3674 47.1821C41.5942 47.3259 39.8211 47.3738 38 47.3738C36.131 47.3738 34.3578 47.3259 32.6326 47.1821C31.5783 45.6486 30.6198 44.115 29.7572 42.5815C28.8466 41 27.984 39.3706 27.2173 37.7891C27.984 36.2077 28.8466 34.5783 29.7572 32.9968C30.6198 31.4633 31.6262 29.9297 32.6805 28.3962C34.4537 28.2524 36.2268 28.2045 38.0479 28.2045C39.9169 28.2045 41.6901 28.2524 43.4153 28.3962C44.4697 29.9297 45.4281 31.4633 46.2907 32.9968C47.2013 34.5783 48.0639 36.2077 48.8307 37.7891C48.016 39.3706 47.2013 40.9521 46.2907 42.5815ZM50.2684 41C50.9872 42.6773 51.5623 44.3067 52.0895 45.9361C50.4601 46.3195 48.7348 46.607 46.9137 46.8466C47.4888 45.9361 48.1118 44.9776 48.639 43.9712C49.2141 42.9649 49.7412 41.9585 50.2684 41ZM38 53.9872C36.8498 52.7412 35.7476 51.3994 34.6933 50.0096C35.7955 50.0575 36.8978 50.1054 38 50.1054C39.1022 50.1054 40.2045 50.0575 41.3067 50.0096C40.2524 51.3994 39.1502 52.7412 38 53.9872ZM29.0863 46.7987C27.2652 46.5591 25.5399 46.2716 23.9105 45.8882C24.4377 44.3067 25.0128 42.6294 25.7316 40.9521C26.2588 41.9105 26.7859 42.9169 27.361 43.8754C27.9361 44.9297 28.5112 45.8403 29.0863 46.7987ZM25.7316 34.5783C25.0128 32.901 24.4377 31.2716 23.9105 29.6422C25.5399 29.2588 27.2652 28.9712 29.0863 28.7316C28.5112 29.6422 27.8882 30.6006 27.361 31.607C26.7859 32.6134 26.2588 33.6198 25.7316 34.5783ZM38 21.5911C39.1502 22.8371 40.2524 24.1789 41.3067 25.5687C40.2045 25.5208 39.1022 25.4728 38 25.4728C36.8978 25.4728 35.7955 25.5208 34.6933 25.5687C35.7476 24.1789 36.8498 22.8371 38 21.5911ZM48.639 31.655L46.9137 28.7796C48.7348 29.0192 50.4601 29.3067 52.0895 29.6901C51.5623 31.2716 50.9872 32.9489 50.2684 34.6262C49.7412 33.6198 49.2141 32.6134 48.639 31.655ZM22.5208 23.8914C21.7061 18.8594 22.377 15.3131 24.3419 14.1629C24.8211 13.8754 25.3962 13.7316 26.0192 13.7316C28.8946 13.7316 32.4888 16.0799 36.0831 19.6262C34.4058 21.4473 32.7284 23.5559 31.099 25.8562C28.3195 26.0958 25.6837 26.5272 23.1917 27.0543C22.9042 25.9521 22.7125 24.8978 22.5208 23.8914ZM10.6837 37.7891C10.6837 35.5367 13.4153 33.1406 18.2077 31.3674C19.1661 30.984 20.2204 30.6486 21.2748 30.361C22.0415 32.7572 23 35.2971 24.1502 37.8371C23 40.377 21.9936 42.869 21.2748 45.2652C14.6613 43.3482 10.6837 40.4728 10.6837 37.7891ZM24.3419 61.4153C22.377 60.2652 21.7061 56.7189 22.5208 51.6869C22.6645 50.6805 22.9042 49.6262 23.1917 48.524C25.6837 49.099 28.3195 49.4824 31.099 49.722C32.7284 52.0224 34.4058 54.0831 36.0831 55.9521C32.5367 59.4505 28.9425 61.8466 26.0192 61.8466C25.3962 61.8466 24.8211 61.7029 24.3419 61.4153ZM53.4792 51.6869C54.2939 56.7189 53.623 60.2652 51.6581 61.4153C51.1789 61.7029 50.6038 61.8466 49.9808 61.8466C47.1054 61.8466 43.5112 59.4984 39.9169 55.9521C41.5942 54.131 43.2716 52.0224 44.901 49.722C47.6805 49.4824 50.3163 49.0511 52.8083 48.524C53.0958 49.6262 53.2875 50.6805 53.4792 51.6869ZM57.7923 44.2109C56.8339 44.5942 55.7796 44.9297 54.7252 45.2173C53.9585 42.8211 53 40.2812 51.8498 37.7412C53 35.2013 54.0064 32.7093 54.7252 30.3131C61.3387 32.23 65.3163 35.1054 65.3163 37.7891C65.3163 40.0415 62.5367 42.4377 57.7923 44.2109Z" fill="#61DAFB"/>
</svg>
