<svg width="50" height="50" viewBox="0 0 50 50" fill="none" xmlns="http://www.w3.org/2000/svg">
<path fill-rule="evenodd" clip-rule="evenodd" d="M18.969 8.13496C18.969 4.80309 21.6588 2.08337 24.9997 2.08337C28.3408 2.08337 31.0305 4.80313 31.0305 8.13496C31.0305 11.4668 28.3407 14.1865 24.9997 14.1865C21.6589 14.1865 18.969 11.4669 18.969 8.13496ZM24.9997 6.25004C23.9806 6.25004 23.1357 7.08361 23.1357 8.13496C23.1357 9.18628 23.9806 10.0198 24.9997 10.0198C26.0189 10.0198 26.8638 9.18632 26.8638 8.13496C26.8638 7.08358 26.0189 6.25004 24.9997 6.25004ZM17.2674 9.68013C17.855 10.6694 17.5293 11.9477 16.5401 12.5352C11.6268 15.4534 8.33317 20.8307 8.33317 26.9842C8.33317 27.5204 8.35813 28.0502 8.40683 28.5724C8.51368 29.718 7.67159 30.7334 6.52597 30.8402C5.38035 30.9471 4.36502 30.105 4.25817 28.9593C4.19748 28.3087 4.1665 27.6497 4.1665 26.9842C4.1665 19.3077 8.28102 12.5944 14.4123 8.95278C15.4016 8.36522 16.6798 8.69087 17.2674 9.68013ZM32.7322 9.68013C33.3197 8.69087 34.598 8.36522 35.5872 8.95278C41.7185 12.5944 45.8331 19.3077 45.8331 26.9842C45.8331 27.6496 45.8021 28.3085 45.7415 28.9593C45.6346 30.1049 44.6193 30.947 43.4737 30.8402C42.3281 30.7334 41.486 29.7181 41.5928 28.5724C41.6415 28.0503 41.6664 27.5205 41.6664 26.9842C41.6664 20.8307 38.3728 15.4534 33.4595 12.5352C32.4702 11.9477 32.1446 10.6694 32.7322 9.68013ZM4.1665 37.897C4.1665 34.5652 6.85616 31.8454 10.1972 31.8454C13.5382 31.8454 16.2279 34.5652 16.2279 37.897C16.2279 41.2288 13.5382 43.9486 10.1972 43.9486C6.8562 43.9486 4.1665 41.2288 4.1665 37.897ZM10.1972 36.012C9.17812 36.012 8.33317 36.8455 8.33317 37.897C8.33317 38.9484 9.17808 39.7819 10.1972 39.7819C11.2163 39.7819 12.0612 38.9484 12.0612 37.897C12.0612 36.8455 11.2162 36.012 10.1972 36.012ZM33.7718 37.897C33.7718 34.5652 36.4615 31.8454 39.8025 31.8454C43.1436 31.8454 45.8333 34.5652 45.8333 37.897C45.8333 41.2288 43.1436 43.9486 39.8025 43.9486C36.4615 43.9486 33.7718 41.2288 33.7718 37.897ZM39.8025 36.012C38.7834 36.012 37.9385 36.8455 37.9385 37.897C37.9385 38.9484 38.7834 39.7819 39.8025 39.7819C40.8217 39.7819 41.6666 38.9484 41.6666 37.897C41.6666 36.8455 40.8217 36.012 39.8025 36.012ZM15.7768 43.533C16.2275 42.4743 17.451 41.9815 18.5097 42.4321C20.5019 43.2802 22.6937 43.7501 24.9997 43.7501C27.3058 43.7501 29.4977 43.2802 31.4897 42.4321C32.5484 41.9815 33.7719 42.4743 34.2226 43.533C34.6733 44.5916 34.1805 45.8152 33.1218 46.2659C30.6235 47.3295 27.8772 47.9168 24.9997 47.9168C22.1222 47.9168 19.3761 47.3295 16.8777 46.2659C15.819 45.8152 15.3261 44.5916 15.7768 43.533Z" fill="#08183A"/>
</svg>
