<svg width="75" height="75" viewBox="0 0 75 75" fill="none" xmlns="http://www.w3.org/2000/svg">
<path d="M30 25C30 13.9543 38.9543 5 50 5C61.0457 5 70 13.9543 70 25C70 36.0457 61.0457 45 50 45C38.9543 45 30 36.0457 30 25Z" fill="#333333"/>
<path d="M46 37C48.2091 37 50 35.2091 50 33V29H46C43.7909 29 42 30.7909 42 33C42 35.2091 43.7909 37 46 37Z" fill="#0ACF83"/>
<path d="M42 25C42 22.7909 43.7909 21 46 21H50V29H46C43.7909 29 42 27.2091 42 25Z" fill="#A259FF"/>
<path d="M42 17C42 14.7909 43.7909 13 46 13H50V21H46C43.7909 21 42 19.2091 42 17Z" fill="#F24E1E"/>
<path d="M50 13H54C56.2091 13 58 14.7909 58 17C58 19.2091 56.2091 21 54 21H50V13Z" fill="#FF7262"/>
<path d="M58 25C58 27.2091 56.2091 29 54 29C51.7909 29 50 27.2091 50 25C50 22.7909 51.7909 21 54 21C56.2091 21 58 22.7909 58 25Z" fill="#1ABCFE"/>
<path d="M12.0833 30H37.9167C41.8333 30 45 33.2479 45 37.265V62.735C45 66.7521 41.8333 70 37.9167 70H12.0833C8.16667 70 5 66.7521 5 62.735V37.265C5 33.2479 8.16667 30 12.0833 30Z" fill="#470137"/>
<path d="M26.0209 42.5682L21.0791 50.747L26.3504 59.4216C26.3833 59.4877 26.3998 59.5538 26.3833 59.6199C26.3669 59.686 26.301 59.6364 26.2021 59.6529H22.4298C22.1663 59.6529 21.9851 59.6364 21.8698 59.4712C21.5238 58.7772 21.1614 58.0998 20.8155 57.4058C20.4696 56.7284 20.0907 56.0344 19.6953 55.3239C19.3 54.6134 18.9047 53.9029 18.5093 53.1759H18.4764C18.1304 53.8864 17.7515 54.5969 17.3727 55.3074C16.9938 56.0179 16.6149 56.7284 16.2525 57.4223C15.8736 58.1163 15.4948 58.8268 15.1159 59.5042C15.05 59.6695 14.9182 59.686 14.737 59.686H11.113C11.0471 59.686 10.9977 59.719 10.9977 59.6364C10.9812 59.5703 10.9977 59.5042 11.0306 59.4547L16.1537 51.0279L11.1624 42.5516C11.113 42.4855 11.0965 42.4195 11.1295 42.3864C11.1624 42.3368 11.2283 42.3203 11.2942 42.3203H15.0335C15.1159 42.3203 15.1983 42.3368 15.2641 42.3534C15.33 42.3864 15.3795 42.436 15.4289 42.5021C15.7419 43.2126 16.1043 43.923 16.4831 44.6335C16.8785 45.344 17.2574 46.038 17.6692 46.732C18.0645 47.4259 18.4269 48.1199 18.7729 48.8304H18.8058C19.1517 48.1034 19.5141 47.3929 19.8765 46.6989C20.239 46.0049 20.6178 45.311 20.9967 44.617C21.3756 43.923 21.738 43.2126 22.1004 42.5351C22.1169 42.469 22.1498 42.4029 22.1992 42.3699C22.2651 42.3368 22.331 42.3203 22.4134 42.3368H25.8891C25.9715 42.3203 26.0539 42.3699 26.0703 42.4525C26.0868 42.469 26.0539 42.5351 26.0209 42.5682Z" fill="#FF61F6"/>
<path fill-rule="evenodd" clip-rule="evenodd" d="M30.0893 59.2565C31.193 59.7687 32.412 60.0166 33.631 60C34.4876 60 35.3277 59.9174 36.1678 59.7687C37.0903 59.6035 37.9963 59.3391 38.8529 58.9756C38.9682 58.926 39.0176 58.8269 39.0176 58.7112C39.0151 58.6679 39.0126 58.6234 39.01 58.5779C38.9957 58.3281 38.9796 58.0464 38.9517 57.7529C38.9502 57.7196 38.9487 57.6865 38.9472 57.6537C38.9324 57.3291 38.9188 57.0317 38.9188 56.7615V41.0316V40.9986C38.9023 40.9325 38.8364 40.8664 38.7541 40.8829H35.4101C35.2948 40.8829 35.2453 40.949 35.2453 41.0647V46.286C35.1539 46.2783 35.0695 46.2742 34.9905 46.2704C34.8988 46.2659 34.8143 46.2618 34.7347 46.2529C34.5864 46.2364 34.4711 46.2364 34.3888 46.2364C32.7579 46.2364 31.3742 46.5503 30.2211 47.1947C29.1339 47.7895 28.2279 48.6818 27.6019 49.7558C26.9924 50.8133 26.6795 52.0194 26.6959 53.2421C26.6959 54.7457 26.9924 56.0015 27.6019 57.0094C28.195 57.9842 29.0516 58.7773 30.0893 59.2565ZM35.2456 49.4252V56.6953C35.0479 56.7614 34.8667 56.7945 34.6525 56.778C34.4384 56.7945 34.2078 56.811 33.9607 56.811C33.4994 56.811 33.0382 56.7449 32.5934 56.5962C32.1651 56.464 31.7863 56.2327 31.4733 55.9353C31.1438 55.6048 30.8967 55.2083 30.732 54.7622C30.5343 54.2169 30.4355 53.6386 30.452 53.0603C30.452 52.2011 30.6332 51.4906 30.9956 50.9619C31.358 50.4331 31.8357 50.0201 32.3958 49.7392C32.9723 49.4418 33.6148 49.3096 34.2572 49.3096C34.4384 49.3096 34.6196 49.3261 34.8008 49.3426L34.8008 49.3426C34.9491 49.3591 35.0973 49.3922 35.2456 49.4252Z" fill="#FF61F6"/>
</svg>
